<?xml version="1.0" encoding="UTF-8" standalone="no"?>
<!DOCTYPE svg PUBLIC "-//W3C//DTD SVG 1.1//EN"
 "http://www.w3.org/Graphics/SVG/1.1/DTD/svg11.dtd">
<!-- Generated by graphviz version 15.0.0 (20260523.1842)
 -->
<!-- Title: property_registry::__deserialize_by_foreach_mutually_recursive Pages: 1 -->
<svg width="669pt" height="498pt"
 viewBox="0.00 0.00 669.00 498.00" xmlns="http://www.w3.org/2000/svg" xmlns:xlink="http://www.w3.org/1999/xlink">
<g id="graph0" class="graph" transform="scale(1 1) rotate(0) translate(4 494)">
<title>property_registry::__deserialize_by_foreach_mutually_recursive</title>
<!-- Node1 -->
<g id="Node000001" class="node">
<title>Node1</title>
<g id="a_Node000001"><a xlink:title=" ">
<polygon fill="#999999" stroke="#666666" points="126.25,-276 0,-276 0,-232 126.25,-232 126.25,-276"/>
<text xml:space="preserve" text-anchor="start" x="8" y="-262.5" font-family="Helvetica,sans-Serif" font-size="10.00">property_registry::</text>
<text xml:space="preserve" text-anchor="start" x="8" y="-250.5" font-family="Helvetica,sans-Serif" font-size="10.00">__deserialize_by_foreach</text>
<text xml:space="preserve" text-anchor="middle" x="63.12" y="-238.5" font-family="Helvetica,sans-Serif" font-size="10.00">_mutually_recursive</text>
</a>
</g>
</g>
<!-- Node1&#45;&gt;Node1 -->
<g id="edge1_Node000001_Node000001" class="edge">
<title>Node1&#45;&gt;Node1</title>
<g id="a_edge1_Node000001_Node000001"><a xlink:title=" ">
<path fill="none" stroke="#63b8ff" d="M34.11,-276.21C31.73,-285.8 41.41,-294 63.12,-294 75.68,-294 84.21,-291.26 88.71,-287.09"/>
<polygon fill="#63b8ff" stroke="#63b8ff" points="92.02,-288.25 91.69,-277.66 85.34,-286.14 92.02,-288.25"/>
</a>
</g>
</g>
<!-- Node2 -->
<g id="Node000002" class="node">
<title>Node2</title>
<g id="a_Node000002"><a xlink:href="$classproperty__registry.html#a406b010a2fdeb1f041cf1aff8ecb33d1" xlink:title=" ">
<polygon fill="white" stroke="#666666" points="277.25,-276 162.25,-276 162.25,-232 277.25,-232 277.25,-276"/>
<text xml:space="preserve" text-anchor="start" x="170.25" y="-262.5" font-family="Helvetica,sans-Serif" font-size="10.00">property_registry::</text>
<text xml:space="preserve" text-anchor="start" x="170.25" y="-250.5" font-family="Helvetica,sans-Serif" font-size="10.00">__deserialize_mutually</text>
<text xml:space="preserve" text-anchor="middle" x="219.75" y="-238.5" font-family="Helvetica,sans-Serif" font-size="10.00">_recursive</text>
</a>
</g>
</g>
<!-- Node1&#45;&gt;Node2 -->
<g id="edge2_Node000001_Node000002" class="edge">
<title>Node1&#45;&gt;Node2</title>
<g id="a_edge2_Node000001_Node000002"><a xlink:title=" ">
<path fill="none" stroke="#63b8ff" d="M126.57,-254C134.55,-254 142.74,-254 150.8,-254"/>
<polygon fill="#63b8ff" stroke="#63b8ff" points="150.55,-257.5 160.55,-254 150.55,-250.5 150.55,-257.5"/>
</a>
</g>
</g>
<!-- Node3 -->
<g id="Node000003" class="node">
<title>Node3</title>
<g id="a_Node000003"><a xlink:href="$classproperty__registry.html#aed7fdba834c71ccdd101b85fd9dfc7ba" xlink:title=" ">
<polygon fill="white" stroke="#666666" points="439.88,-490 332.38,-490 332.38,-446 439.88,-446 439.88,-490"/>
<text xml:space="preserve" text-anchor="start" x="340.38" y="-476.5" font-family="Helvetica,sans-Serif" font-size="10.00">property_registry::</text>
<text xml:space="preserve" text-anchor="start" x="340.38" y="-464.5" font-family="Helvetica,sans-Serif" font-size="10.00">__get_deserialization</text>
<text xml:space="preserve" text-anchor="middle" x="386.12" y="-452.5" font-family="Helvetica,sans-Serif" font-size="10.00">_task_name</text>
</a>
</g>
</g>
<!-- Node2&#45;&gt;Node3 -->
<g id="edge3_Node000002_Node000003" class="edge">
<title>Node2&#45;&gt;Node3</title>
<g id="a_edge3_Node000002_Node000003"><a xlink:title=" ">
<path fill="none" stroke="#63b8ff" d="M226.63,-276.47C237.61,-314.35 264.64,-391.26 313.25,-437 316.11,-439.69 319.24,-442.17 322.54,-444.44"/>
<polygon fill="#63b8ff" stroke="#63b8ff" points="320.56,-447.34 330.92,-449.56 324.21,-441.36 320.56,-447.34"/>
</a>
</g>
</g>
<!-- Node4 -->
<g id="Node000004" class="node">
<title>Node4</title>
<g id="a_Node000004"><a xlink:href="$classproperty__registry.html#a54bf9458ceed915b9df48b4b10731895" xlink:title=" ">
<polygon fill="white" stroke="#666666" points="441,-428 331.25,-428 331.25,-384 441,-384 441,-428"/>
<text xml:space="preserve" text-anchor="start" x="339.25" y="-414.5" font-family="Helvetica,sans-Serif" font-size="10.00">property_registry::</text>
<text xml:space="preserve" text-anchor="start" x="339.25" y="-402.5" font-family="Helvetica,sans-Serif" font-size="10.00">__get_memory_offset</text>
<text xml:space="preserve" text-anchor="middle" x="386.12" y="-390.5" font-family="Helvetica,sans-Serif" font-size="10.00">_of_the_property</text>
</a>
</g>
</g>
<!-- Node2&#45;&gt;Node4 -->
<g id="edge4_Node000002_Node000004" class="edge">
<title>Node2&#45;&gt;Node4</title>
<g id="a_edge4_Node000002_Node000004"><a xlink:title=" ">
<path fill="none" stroke="#63b8ff" d="M233.06,-276.43C248.65,-303.06 277.81,-347.35 313.25,-375 315.68,-376.89 318.24,-378.7 320.89,-380.41"/>
<polygon fill="#63b8ff" stroke="#63b8ff" points="319.1,-383.42 329.5,-385.44 322.64,-377.37 319.1,-383.42"/>
</a>
</g>
</g>
<!-- Node5 -->
<g id="Node000005" class="node">
<title>Node5</title>
<g id="a_Node000005"><a xlink:href="$classproperty__registry.html#af070ce279d80c3b34b7fea2780660fd8" xlink:title=" ">
<polygon fill="white" stroke="#666666" points="445.12,-366 327.12,-366 327.12,-322 445.12,-322 445.12,-366"/>
<text xml:space="preserve" text-anchor="start" x="335.12" y="-352.5" font-family="Helvetica,sans-Serif" font-size="10.00">property_registry::</text>
<text xml:space="preserve" text-anchor="start" x="335.12" y="-340.5" font-family="Helvetica,sans-Serif" font-size="10.00">__get_metadata_of_the</text>
<text xml:space="preserve" text-anchor="middle" x="386.12" y="-328.5" font-family="Helvetica,sans-Serif" font-size="10.00">_property</text>
</a>
</g>
</g>
<!-- Node2&#45;&gt;Node5 -->
<g id="edge5_Node000002_Node000005" class="edge">
<title>Node2&#45;&gt;Node5</title>
<g id="a_edge5_Node000002_Node000005"><a xlink:title=" ">
<path fill="none" stroke="#63b8ff" d="M252.95,-276.34C270.39,-287.98 292.55,-302.03 313.25,-313 315.58,-314.24 317.97,-315.46 320.4,-316.67"/>
<polygon fill="#63b8ff" stroke="#63b8ff" points="318.64,-319.71 329.16,-320.9 321.67,-313.4 318.64,-319.71"/>
</a>
</g>
</g>
<!-- Node6 -->
<g id="Node000006" class="node">
<title>Node6</title>
<g id="a_Node000006"><a xlink:href="$classproperty__registry.html#af10ed06e22190a6fb8ed0aa2f3031f30" xlink:title=" ">
<polygon fill="white" stroke="#666666" points="441,-304 331.25,-304 331.25,-260 441,-260 441,-304"/>
<text xml:space="preserve" text-anchor="start" x="339.25" y="-290.5" font-family="Helvetica,sans-Serif" font-size="10.00">property_registry::</text>
<text xml:space="preserve" text-anchor="start" x="339.25" y="-278.5" font-family="Helvetica,sans-Serif" font-size="10.00">__get_the_top_class</text>
<text xml:space="preserve" text-anchor="middle" x="386.12" y="-266.5" font-family="Helvetica,sans-Serif" font-size="10.00">_property_list_iterator</text>
</a>
</g>
</g>
<!-- Node2&#45;&gt;Node6 -->
<g id="edge6_Node000002_Node000006" class="edge">
<title>Node2&#45;&gt;Node6</title>
<g id="a_edge6_Node000002_Node000006"><a xlink:title=" ">
<path fill="none" stroke="#63b8ff" d="M277.32,-263.64C291.02,-265.97 305.78,-268.48 319.85,-270.88"/>
<polygon fill="#63b8ff" stroke="#63b8ff" points="319.01,-274.29 329.46,-272.52 320.19,-267.39 319.01,-274.29"/>
</a>
</g>
</g>
<!-- Node7 -->
<g id="Node000007" class="node">
<title>Node7</title>
<g id="a_Node000007"><a xlink:href="$classproperty__registry.html#a48fc400482cfef1e17f37bcccc50d991" xlink:title=" ">
<polygon fill="white" stroke="#666666" points="459,-242 313.25,-242 313.25,-210 459,-210 459,-242"/>
<text xml:space="preserve" text-anchor="start" x="321.25" y="-228.5" font-family="Helvetica,sans-Serif" font-size="10.00">property_registry::</text>
<text xml:space="preserve" text-anchor="middle" x="386.12" y="-216.5" font-family="Helvetica,sans-Serif" font-size="10.00">__get_top_class_property_list</text>
</a>
</g>
</g>
<!-- Node2&#45;&gt;Node7 -->
<g id="edge7_Node000002_Node000007" class="edge">
<title>Node2&#45;&gt;Node7</title>
<g id="a_edge7_Node000002_Node000007"><a xlink:title=" ">
<path fill="none" stroke="#63b8ff" d="M277.32,-244.36C285.17,-243.03 293.37,-241.63 301.59,-240.23"/>
<polygon fill="#63b8ff" stroke="#63b8ff" points="302.01,-243.71 311.28,-238.58 300.84,-236.81 302.01,-243.71"/>
</a>
</g>
</g>
<!-- Node8 -->
<g id="Node000008" class="node">
<title>Node8</title>
<g id="a_Node000008"><a xlink:href="$classproperty__registry.html#a2e2c38d1c2b2115e7fc913fc24a5d802" xlink:title=" ">
<polygon fill="white" stroke="#666666" points="456.38,-192 315.88,-192 315.88,-136 456.38,-136 456.38,-192"/>
<text xml:space="preserve" text-anchor="start" x="323.88" y="-178.5" font-family="Helvetica,sans-Serif" font-size="10.00">property_registry::</text>
<text xml:space="preserve" text-anchor="start" x="323.88" y="-166.5" font-family="Helvetica,sans-Serif" font-size="10.00">__push_parent_class</text>
<text xml:space="preserve" text-anchor="start" x="323.88" y="-154.5" font-family="Helvetica,sans-Serif" font-size="10.00">_layers_by_typename_string</text>
<text xml:space="preserve" text-anchor="middle" x="386.12" y="-142.5" font-family="Helvetica,sans-Serif" font-size="10.00">_recursive</text>
</a>
</g>
</g>
<!-- Node2&#45;&gt;Node8 -->
<g id="edge8_Node000002_Node000008" class="edge">
<title>Node2&#45;&gt;Node8</title>
<g id="a_edge8_Node000002_Node000008"><a xlink:title=" ">
<path fill="none" stroke="#63b8ff" d="M258.79,-231.69C275.41,-222.08 295.2,-210.81 313.25,-201 315.19,-199.94 317.17,-198.88 319.16,-197.81"/>
<polygon fill="#63b8ff" stroke="#63b8ff" points="320.75,-200.93 327.94,-193.15 317.47,-194.75 320.75,-200.93"/>
</a>
</g>
</g>
<!-- Node9 -->
<g id="Node000009" class="node">
<title>Node9</title>
<g id="a_Node000009"><a xlink:href="$classframework__base.html#a3c205065d5c1c413fb216671906a7e3e" xlink:title=" ">
<polygon fill="white" stroke="#666666" points="439.88,-100 332.38,-100 332.38,-68 439.88,-68 439.88,-100"/>
<text xml:space="preserve" text-anchor="start" x="340.38" y="-86.5" font-family="Helvetica,sans-Serif" font-size="10.00">framework_base::get</text>
<text xml:space="preserve" text-anchor="middle" x="386.12" y="-74.5" font-family="Helvetica,sans-Serif" font-size="10.00">_framework</text>
</a>
</g>
</g>
<!-- Node2&#45;&gt;Node9 -->
<g id="edge9_Node000002_Node000009" class="edge">
<title>Node2&#45;&gt;Node9</title>
<g id="a_edge9_Node000002_Node000009"><a xlink:title=" ">
<path fill="none" stroke="#63b8ff" d="M233.18,-231.7C249.11,-204.56 278.81,-158.46 313.25,-127 321.7,-119.28 331.76,-112.24 341.63,-106.19"/>
<polygon fill="#63b8ff" stroke="#63b8ff" points="343.2,-109.32 350.07,-101.25 339.67,-103.28 343.2,-109.32"/>
</a>
</g>
</g>
<!-- Node11 -->
<g id="Node000011" class="node">
<title>Node11</title>
<g id="a_Node000011"><a xlink:href="$classframework__base.html#a6ade7ddeca01a5fcfe98853e10d37798" xlink:title=" ">
<polygon fill="white" stroke="#666666" points="439.88,-32 332.38,-32 332.38,0 439.88,0 439.88,-32"/>
<text xml:space="preserve" text-anchor="start" x="340.38" y="-18.5" font-family="Helvetica,sans-Serif" font-size="10.00">framework_base::get</text>
<text xml:space="preserve" text-anchor="middle" x="386.12" y="-6.5" font-family="Helvetica,sans-Serif" font-size="10.00">_method_reflection</text>
</a>
</g>
</g>
<!-- Node2&#45;&gt;Node11 -->
<g id="edge12_Node000002_Node000011" class="edge">
<title>Node2&#45;&gt;Node11</title>
<g id="a_edge12_Node000002_Node000011"><a xlink:title=" ">
<path fill="none" stroke="#63b8ff" d="M226.66,-231.69C237.91,-192.73 265.64,-111.43 313.25,-59 320.51,-51.01 329.6,-44.04 338.85,-38.17"/>
<polygon fill="#63b8ff" stroke="#63b8ff" points="340.36,-41.34 347.17,-33.22 336.79,-35.32 340.36,-41.34"/>
</a>
</g>
</g>
<!-- Node9&#45;&gt;Node9 -->
<g id="edge11_Node000009_Node000009" class="edge">
<title>Node9&#45;&gt;Node9</title>
<g id="a_edge11_Node000009_Node000009"><a xlink:title=" ">
<path fill="none" stroke="#63b8ff" d="M356.42,-100.44C350.88,-109.58 360.78,-118 386.12,-118 399.99,-118 409.23,-115.48 413.85,-111.71"/>
<polygon fill="#63b8ff" stroke="#63b8ff" points="417.28,-112.39 415.57,-101.93 410.39,-111.18 417.28,-112.39"/>
</a>
</g>
</g>
<!-- Node10 -->
<g id="Node000010" class="node">
<title>Node10</title>
<g id="a_Node000010"><a xlink:href="$classframework__base.html#aba86f0e48051ab99e6a574d3ca961409" xlink:title=" ">
<polygon fill="white" stroke="#666666" points="661,-94 495,-94 495,-74 661,-74 661,-94"/>
<text xml:space="preserve" text-anchor="middle" x="578" y="-80.5" font-family="Helvetica,sans-Serif" font-size="10.00">framework_base::framework_base</text>
</a>
</g>
</g>
<!-- Node9&#45;&gt;Node10 -->
<g id="edge10_Node000009_Node000010" class="edge">
<title>Node9&#45;&gt;Node10</title>
<g id="a_edge10_Node000009_Node000010"><a xlink:title=" ">
<path fill="none" stroke="#63b8ff" d="M440.27,-84C453.73,-84 468.6,-84 483.42,-84"/>
<polygon fill="#63b8ff" stroke="#63b8ff" points="483.2,-87.5 493.2,-84 483.2,-80.5 483.2,-87.5"/>
</a>
</g>
</g>
<!-- Node11&#45;&gt;Node11 -->
<g id="edge13_Node000011_Node000011" class="edge">
<title>Node11&#45;&gt;Node11</title>
<g id="a_edge13_Node000011_Node000011"><a xlink:title=" ">
<path fill="none" stroke="#63b8ff" d="M356.42,-32.44C350.88,-41.58 360.78,-50 386.12,-50 399.99,-50 409.23,-47.48 413.85,-43.71"/>
<polygon fill="#63b8ff" stroke="#63b8ff" points="417.28,-44.39 415.57,-33.93 410.39,-43.18 417.28,-44.39"/>
</a>
</g>
</g>
</g>
</svg>
