<?xml version="1.0" encoding="UTF-8" standalone="no"?>
<!DOCTYPE svg PUBLIC "-//W3C//DTD SVG 1.1//EN"
 "http://www.w3.org/Graphics/SVG/1.1/DTD/svg11.dtd">
<!-- Generated by graphviz version 15.0.0 (20260523.1842)
 -->
<!-- Title: arguments&lt; First, Second, Third, void, void, void, void, void, void, void &gt; Pages: 1 -->
<svg width="1866pt" height="201pt"
 viewBox="0.00 0.00 1866.00 201.00" xmlns="http://www.w3.org/2000/svg" xmlns:xlink="http://www.w3.org/1999/xlink">
<g id="graph0" class="graph" transform="scale(1 1) rotate(0) translate(4 197)">
<title>arguments&lt; First, Second, Third, void, void, void, void, void, void, void &gt;</title>
<!-- Node1 -->
<g id="Node000001" class="node">
<title>Node1</title>
<g id="a_Node000001"><a xlink:title=" ">
<polygon fill="#999999" stroke="#666666" points="839.75,-50 707.5,-50 707.5,-6 839.75,-6 839.75,-50"/>
<text xml:space="preserve" text-anchor="start" x="715.5" y="-36.5" font-family="Helvetica,sans-Serif" font-size="10.00">arguments&lt; First, Second,</text>
<text xml:space="preserve" text-anchor="start" x="715.5" y="-24.5" font-family="Helvetica,sans-Serif" font-size="10.00"> Third, void, void, void,</text>
<text xml:space="preserve" text-anchor="middle" x="773.62" y="-12.5" font-family="Helvetica,sans-Serif" font-size="10.00"> void, void, void, void &gt;</text>
</a>
</g>
</g>
<!-- Node6 -->
<g id="Node000006" class="node">
<title>Node6</title>
<g id="a_Node000006"><a xlink:href="$classarguments_3_01_first_00_01_second_00_01_third_00_01_fourth_00_01void_00_01void_00_01void_00ac2342cbd986e73c2754f6e6e52780db.html" xlink:title=" ">
<polygon fill="white" stroke="#666666" points="1009,-50 876.75,-50 876.75,-6 1009,-6 1009,-50"/>
<text xml:space="preserve" text-anchor="start" x="884.75" y="-36.5" font-family="Helvetica,sans-Serif" font-size="10.00">arguments&lt; First, Second,</text>
<text xml:space="preserve" text-anchor="start" x="884.75" y="-24.5" font-family="Helvetica,sans-Serif" font-size="10.00"> Third, Fourth, void, void,</text>
<text xml:space="preserve" text-anchor="middle" x="942.88" y="-12.5" font-family="Helvetica,sans-Serif" font-size="10.00"> void, void, void, void &gt;</text>
</a>
</g>
</g>
<!-- Node1&#45;&gt;Node6 -->
<g id="edge7_Node000001_Node000006" class="edge">
<title>Node1&#45;&gt;Node6</title>
<g id="a_edge7_Node000001_Node000006"><a xlink:title=" ">
<path fill="none" stroke="#63b8ff" d="M851.52,-28C859.85,-28 868.27,-28 876.44,-28"/>
<polygon fill="#63b8ff" stroke="#63b8ff" points="851.76,-24.5 841.76,-28 851.76,-31.5 851.76,-24.5"/>
</a>
</g>
</g>
<!-- Node2 -->
<g id="Node000002" class="node">
<title>Node2</title>
<g id="a_Node000002"><a xlink:href="$classarguments_3_01_first_00_01_second_00_01void_00_01void_00_01void_00_01void_00_01void_00_01void_00_01void_00_01void_01_4.html" xlink:title=" ">
<polygon fill="white" stroke="#666666" points="670.5,-103 538.25,-103 538.25,-59 670.5,-59 670.5,-103"/>
<text xml:space="preserve" text-anchor="start" x="546.25" y="-89.5" font-family="Helvetica,sans-Serif" font-size="10.00">arguments&lt; First, Second,</text>
<text xml:space="preserve" text-anchor="start" x="546.25" y="-77.5" font-family="Helvetica,sans-Serif" font-size="10.00"> void, void, void, void,</text>
<text xml:space="preserve" text-anchor="middle" x="604.38" y="-65.5" font-family="Helvetica,sans-Serif" font-size="10.00"> void, void, void, void &gt;</text>
</a>
</g>
</g>
<!-- Node2&#45;&gt;Node1 -->
<g id="edge1_Node000001_Node000002" class="edge">
<title>Node2&#45;&gt;Node1</title>
<g id="a_edge1_Node000001_Node000002"><a xlink:title=" ">
<path fill="none" stroke="#63b8ff" d="M681.7,-56.81C690.22,-54.11 698.83,-51.38 707.19,-48.73"/>
<polygon fill="#63b8ff" stroke="#63b8ff" points="680.91,-53.39 672.44,-59.75 683.03,-60.06 680.91,-53.39"/>
</a>
</g>
</g>
<!-- Node3 -->
<g id="Node000003" class="node">
<title>Node3</title>
<g id="a_Node000003"><a xlink:href="$classarguments_3_01_first_00_01void_00_01void_00_01void_00_01void_00_01void_00_01void_00_01void_00_01void_00_01void_01_4.html" xlink:title=" ">
<polygon fill="white" stroke="#666666" points="394.25,-193 276.25,-193 276.25,-149 394.25,-149 394.25,-193"/>
<text xml:space="preserve" text-anchor="start" x="284.25" y="-179.5" font-family="Helvetica,sans-Serif" font-size="10.00">arguments&lt; First, void,</text>
<text xml:space="preserve" text-anchor="start" x="284.25" y="-167.5" font-family="Helvetica,sans-Serif" font-size="10.00"> void, void, void, void,</text>
<text xml:space="preserve" text-anchor="middle" x="335.25" y="-155.5" font-family="Helvetica,sans-Serif" font-size="10.00"> void, void, void, void &gt;</text>
</a>
</g>
</g>
<!-- Node3&#45;&gt;Node2 -->
<g id="edge2_Node000002_Node000003" class="edge">
<title>Node3&#45;&gt;Node2</title>
<g id="a_edge2_Node000002_Node000003"><a xlink:title=" ">
<path fill="none" stroke="#63b8ff" d="M405.26,-147.75C446.23,-133.94 497.89,-116.54 538.18,-102.97"/>
<polygon fill="#63b8ff" stroke="#63b8ff" points="404.34,-144.37 395.98,-150.88 406.57,-151 404.34,-144.37"/>
</a>
</g>
</g>
<!-- Node4 -->
<g id="Node000004" class="node">
<title>Node4</title>
<g id="a_Node000004"><a xlink:href="$classargument__base.html" xlink:title=" ">
<polygon fill="white" stroke="#666666" points="107.5,-189 24.75,-189 24.75,-169 107.5,-169 107.5,-189"/>
<text xml:space="preserve" text-anchor="middle" x="66.12" y="-175.5" font-family="Helvetica,sans-Serif" font-size="10.00">argument_base</text>
</a>
</g>
</g>
<!-- Node4&#45;&gt;Node3 -->
<g id="edge3_Node000003_Node000004" class="edge">
<title>Node4&#45;&gt;Node3</title>
<g id="a_edge3_Node000003_Node000004"><a xlink:title=" ">
<path fill="none" stroke="#63b8ff" d="M119.27,-177.44C164.31,-176.09 229.33,-174.14 276.06,-172.74"/>
<polygon fill="#63b8ff" stroke="#63b8ff" points="119.39,-173.93 109.5,-177.73 119.6,-180.93 119.39,-173.93"/>
</a>
</g>
</g>
<!-- Node5 -->
<g id="Node000005" class="node">
<title>Node5</title>
<g id="a_Node000005"><a xlink:href="$classarguments.html" xlink:title=" ">
<polygon fill="white" stroke="#666666" points="132.25,-109 0,-109 0,-53 132.25,-53 132.25,-109"/>
<text xml:space="preserve" text-anchor="start" x="8" y="-95.5" font-family="Helvetica,sans-Serif" font-size="10.00">arguments&lt; First, Second,</text>
<text xml:space="preserve" text-anchor="start" x="8" y="-83.5" font-family="Helvetica,sans-Serif" font-size="10.00"> Third, Fourth, Fifth,</text>
<text xml:space="preserve" text-anchor="start" x="8" y="-71.5" font-family="Helvetica,sans-Serif" font-size="10.00"> Sixth, Seventh, Eighth,</text>
<text xml:space="preserve" text-anchor="middle" x="66.12" y="-59.5" font-family="Helvetica,sans-Serif" font-size="10.00"> Ninth, Tenth &gt;</text>
</a>
</g>
</g>
<!-- Node5&#45;&gt;Node1 -->
<g id="edge6_Node000001_Node000005" class="edge">
<title>Node5&#45;&gt;Node1</title>
<g id="a_edge6_Node000001_Node000005"><a xlink:title=" ">
<path fill="none" stroke="orange" stroke-dasharray="5,2" d="M143.9,-65.48C213.58,-52.24 319.32,-34.23 412.25,-27 460.11,-23.28 472.25,-26.9 520.25,-27 583.78,-27.13 656.31,-27.43 707.26,-27.67"/>
<polygon fill="orange" stroke="orange" points="143.26,-62.04 134.1,-67.36 144.58,-68.92 143.26,-62.04"/>
</a>
</g>
<text xml:space="preserve" text-anchor="start" x="415.25" y="-64.25" font-family="Helvetica,sans-Serif" font-size="10.00" fill="grey">&lt; First, Second, Third,</text>
<text xml:space="preserve" text-anchor="start" x="415.25" y="-48.25" font-family="Helvetica,sans-Serif" font-size="10.00" fill="grey">   void, void, void, void,</text>
<text xml:space="preserve" text-anchor="start" x="415.25" y="-32.25" font-family="Helvetica,sans-Serif" font-size="10.00" fill="grey">   void, void, void &gt;</text>
</g>
<!-- Node5&#45;&gt;Node2 -->
<g id="edge5_Node000002_Node000005" class="edge">
<title>Node5&#45;&gt;Node2</title>
<g id="a_edge5_Node000002_Node000005"><a xlink:title=" ">
<path fill="none" stroke="orange" stroke-dasharray="5,2" d="M143.83,-81C249.58,-81 438.35,-81 537.85,-81"/>
<polygon fill="orange" stroke="orange" points="144.13,-77.5 134.13,-81 144.13,-84.5 144.13,-77.5"/>
</a>
</g>
<text xml:space="preserve" text-anchor="start" x="284.25" y="-118.25" font-family="Helvetica,sans-Serif" font-size="10.00" fill="grey">&lt; First, Second, void,</text>
<text xml:space="preserve" text-anchor="start" x="284.25" y="-102.25" font-family="Helvetica,sans-Serif" font-size="10.00" fill="grey">   void, void, void, void,</text>
<text xml:space="preserve" text-anchor="start" x="284.25" y="-86.25" font-family="Helvetica,sans-Serif" font-size="10.00" fill="grey">   void, void, void &gt;</text>
</g>
<!-- Node5&#45;&gt;Node3 -->
<g id="edge4_Node000003_Node000005" class="edge">
<title>Node5&#45;&gt;Node3</title>
<g id="a_edge4_Node000003_Node000005"><a xlink:title=" ">
<path fill="none" stroke="orange" stroke-dasharray="5,2" d="M143.67,-92.04C187.71,-99.2 238.19,-109.02 258.25,-119 267.83,-123.77 267.67,-128.6 276.25,-135 282.52,-139.68 289.41,-144.34 296.19,-148.68"/>
<polygon fill="orange" stroke="orange" points="144.26,-88.59 133.83,-90.47 143.16,-95.5 144.26,-88.59"/>
</a>
</g>
<text xml:space="preserve" text-anchor="start" x="153.25" y="-156.25" font-family="Helvetica,sans-Serif" font-size="10.00" fill="grey">&lt; First, void, void,</text>
<text xml:space="preserve" text-anchor="start" x="153.25" y="-140.25" font-family="Helvetica,sans-Serif" font-size="10.00" fill="grey">   void, void, void, void,</text>
<text xml:space="preserve" text-anchor="start" x="153.25" y="-124.25" font-family="Helvetica,sans-Serif" font-size="10.00" fill="grey">   void, void, void &gt;</text>
</g>
<!-- Node7 -->
<g id="Node000007" class="node">
<title>Node7</title>
<g id="a_Node000007"><a xlink:href="$classarguments_3_01_first_00_01_second_00_01_third_00_01_fourth_00_01_fifth_00_01void_00_01void_788cb072f5ad6146b8c532ae6bebb744.html" xlink:title=" ">
<polygon fill="white" stroke="#666666" points="1178.25,-56 1046,-56 1046,0 1178.25,0 1178.25,-56"/>
<text xml:space="preserve" text-anchor="start" x="1054" y="-42.5" font-family="Helvetica,sans-Serif" font-size="10.00">arguments&lt; First, Second,</text>
<text xml:space="preserve" text-anchor="start" x="1054" y="-30.5" font-family="Helvetica,sans-Serif" font-size="10.00"> Third, Fourth, Fifth,</text>
<text xml:space="preserve" text-anchor="start" x="1054" y="-18.5" font-family="Helvetica,sans-Serif" font-size="10.00"> void, void, void, void,</text>
<text xml:space="preserve" text-anchor="middle" x="1112.12" y="-6.5" font-family="Helvetica,sans-Serif" font-size="10.00"> void &gt;</text>
</a>
</g>
</g>
<!-- Node6&#45;&gt;Node7 -->
<g id="edge8_Node000006_Node000007" class="edge">
<title>Node6&#45;&gt;Node7</title>
<g id="a_edge8_Node000006_Node000007"><a xlink:title=" ">
<path fill="none" stroke="#63b8ff" d="M1020.77,-28C1029.1,-28 1037.52,-28 1045.69,-28"/>
<polygon fill="#63b8ff" stroke="#63b8ff" points="1021.01,-24.5 1011.01,-28 1021.01,-31.5 1021.01,-24.5"/>
</a>
</g>
</g>
<!-- Node8 -->
<g id="Node000008" class="node">
<title>Node8</title>
<g id="a_Node000008"><a xlink:href="$classarguments_3_01_first_00_01_second_00_01_third_00_01_fourth_00_01_fifth_00_01_sixth_00_01voib611ee7ab7022b2db86122fd955ceb62.html" xlink:title=" ">
<polygon fill="white" stroke="#666666" points="1347.5,-56 1215.25,-56 1215.25,0 1347.5,0 1347.5,-56"/>
<text xml:space="preserve" text-anchor="start" x="1223.25" y="-42.5" font-family="Helvetica,sans-Serif" font-size="10.00">arguments&lt; First, Second,</text>
<text xml:space="preserve" text-anchor="start" x="1223.25" y="-30.5" font-family="Helvetica,sans-Serif" font-size="10.00"> Third, Fourth, Fifth,</text>
<text xml:space="preserve" text-anchor="start" x="1223.25" y="-18.5" font-family="Helvetica,sans-Serif" font-size="10.00"> Sixth, void, void, void,</text>
<text xml:space="preserve" text-anchor="middle" x="1281.38" y="-6.5" font-family="Helvetica,sans-Serif" font-size="10.00"> void &gt;</text>
</a>
</g>
</g>
<!-- Node7&#45;&gt;Node8 -->
<g id="edge9_Node000007_Node000008" class="edge">
<title>Node7&#45;&gt;Node8</title>
<g id="a_edge9_Node000007_Node000008"><a xlink:title=" ">
<path fill="none" stroke="#63b8ff" d="M1190.02,-28C1198.35,-28 1206.77,-28 1214.94,-28"/>
<polygon fill="#63b8ff" stroke="#63b8ff" points="1190.26,-24.5 1180.26,-28 1190.26,-31.5 1190.26,-24.5"/>
</a>
</g>
</g>
<!-- Node9 -->
<g id="Node000009" class="node">
<title>Node9</title>
<g id="a_Node000009"><a xlink:href="$classarguments_3_01_first_00_01_second_00_01_third_00_01_fourth_00_01_fifth_00_01_sixth_00_01_se2de1b47574fec36328f416a3054d6bcc.html" xlink:title=" ">
<polygon fill="white" stroke="#666666" points="1519,-56 1384.5,-56 1384.5,0 1519,0 1519,-56"/>
<text xml:space="preserve" text-anchor="start" x="1392.5" y="-42.5" font-family="Helvetica,sans-Serif" font-size="10.00">arguments&lt; First, Second,</text>
<text xml:space="preserve" text-anchor="start" x="1392.5" y="-30.5" font-family="Helvetica,sans-Serif" font-size="10.00"> Third, Fourth, Fifth,</text>
<text xml:space="preserve" text-anchor="start" x="1392.5" y="-18.5" font-family="Helvetica,sans-Serif" font-size="10.00"> Sixth, Seventh, void, void,</text>
<text xml:space="preserve" text-anchor="middle" x="1451.75" y="-6.5" font-family="Helvetica,sans-Serif" font-size="10.00"> void &gt;</text>
</a>
</g>
</g>
<!-- Node8&#45;&gt;Node9 -->
<g id="edge10_Node000008_Node000009" class="edge">
<title>Node8&#45;&gt;Node9</title>
<g id="a_edge10_Node000008_Node000009"><a xlink:title=" ">
<path fill="none" stroke="#63b8ff" d="M1359.24,-28C1367.59,-28 1376.03,-28 1384.24,-28"/>
<polygon fill="#63b8ff" stroke="#63b8ff" points="1359.47,-24.5 1349.47,-28 1359.47,-31.5 1359.47,-24.5"/>
</a>
</g>
</g>
<!-- Node10 -->
<g id="Node000010" class="node">
<title>Node10</title>
<g id="a_Node000010"><a xlink:href="$classarguments_3_01_first_00_01_second_00_01_third_00_01_fourth_00_01_fifth_00_01_sixth_00_01_se0b61b8091a62ec135563eeedcbcc5cb7.html" xlink:title=" ">
<polygon fill="white" stroke="#666666" points="1688.25,-56 1556,-56 1556,0 1688.25,0 1688.25,-56"/>
<text xml:space="preserve" text-anchor="start" x="1564" y="-42.5" font-family="Helvetica,sans-Serif" font-size="10.00">arguments&lt; First, Second,</text>
<text xml:space="preserve" text-anchor="start" x="1564" y="-30.5" font-family="Helvetica,sans-Serif" font-size="10.00"> Third, Fourth, Fifth,</text>
<text xml:space="preserve" text-anchor="start" x="1564" y="-18.5" font-family="Helvetica,sans-Serif" font-size="10.00"> Sixth, Seventh, Eighth,</text>
<text xml:space="preserve" text-anchor="middle" x="1622.12" y="-6.5" font-family="Helvetica,sans-Serif" font-size="10.00"> void, void &gt;</text>
</a>
</g>
</g>
<!-- Node9&#45;&gt;Node10 -->
<g id="edge11_Node000009_Node000010" class="edge">
<title>Node9&#45;&gt;Node10</title>
<g id="a_edge11_Node000009_Node000010"><a xlink:title=" ">
<path fill="none" stroke="#63b8ff" d="M1530.61,-28C1538.97,-28 1547.42,-28 1555.61,-28"/>
<polygon fill="#63b8ff" stroke="#63b8ff" points="1530.81,-24.5 1520.81,-28 1530.81,-31.5 1530.81,-24.5"/>
</a>
</g>
</g>
<!-- Node11 -->
<g id="Node000011" class="node">
<title>Node11</title>
<g id="a_Node000011"><a xlink:href="$classarguments_3_01_first_00_01_second_00_01_third_00_01_fourth_00_01_fifth_00_01_sixth_00_01_se469385a6c8f387c6ca09656aa1afa12c.html" xlink:title=" ">
<polygon fill="white" stroke="#666666" points="1857.5,-56 1725.25,-56 1725.25,0 1857.5,0 1857.5,-56"/>
<text xml:space="preserve" text-anchor="start" x="1733.25" y="-42.5" font-family="Helvetica,sans-Serif" font-size="10.00">arguments&lt; First, Second,</text>
<text xml:space="preserve" text-anchor="start" x="1733.25" y="-30.5" font-family="Helvetica,sans-Serif" font-size="10.00"> Third, Fourth, Fifth,</text>
<text xml:space="preserve" text-anchor="start" x="1733.25" y="-18.5" font-family="Helvetica,sans-Serif" font-size="10.00"> Sixth, Seventh, Eighth,</text>
<text xml:space="preserve" text-anchor="middle" x="1791.38" y="-6.5" font-family="Helvetica,sans-Serif" font-size="10.00"> Ninth, void &gt;</text>
</a>
</g>
</g>
<!-- Node10&#45;&gt;Node11 -->
<g id="edge12_Node000010_Node000011" class="edge">
<title>Node10&#45;&gt;Node11</title>
<g id="a_edge12_Node000010_Node000011"><a xlink:title=" ">
<path fill="none" stroke="#63b8ff" d="M1700.02,-28C1708.35,-28 1716.77,-28 1724.94,-28"/>
<polygon fill="#63b8ff" stroke="#63b8ff" points="1700.26,-24.5 1690.26,-28 1700.26,-31.5 1700.26,-24.5"/>
</a>
</g>
</g>
</g>
</svg>
