<?xml version="1.0" encoding="UTF-8" standalone="no"?>
<!DOCTYPE svg PUBLIC "-//W3C//DTD SVG 1.1//EN"
 "http://www.w3.org/Graphics/SVG/1.1/DTD/svg11.dtd">
<!-- Generated by graphviz version 15.0.0 (20260523.1842)
 -->
<!-- Title: smart_ptr&lt; T, RefType::_Observer &gt;::swap Pages: 1 -->
<svg width="281pt" height="58pt"
 viewBox="0.00 0.00 281.00 58.00" xmlns="http://www.w3.org/2000/svg" xmlns:xlink="http://www.w3.org/1999/xlink">
<g id="graph0" class="graph" transform="scale(1 1) rotate(0) translate(4 54)">
<title>smart_ptr&lt; T, RefType::_Observer &gt;::swap</title>
<!-- Node1 -->
<g id="Node000001" class="node">
<title>Node1</title>
<g id="a_Node000001"><a xlink:title=" ">
<polygon fill="#999999" stroke="#666666" points="113.5,-32 0,-32 0,0 113.5,0 113.5,-32"/>
<text xml:space="preserve" text-anchor="start" x="8" y="-18.5" font-family="Helvetica,sans-Serif" font-size="10.00">smart_ptr&lt; T, RefType</text>
<text xml:space="preserve" text-anchor="middle" x="56.75" y="-6.5" font-family="Helvetica,sans-Serif" font-size="10.00">::_Observer &gt;::swap</text>
</a>
</g>
</g>
<!-- Node2 -->
<g id="Node000002" class="node">
<title>Node2</title>
<g id="a_Node000002"><a xlink:href="$classsmart__ptr_3_01_t_00_01_ref_type_1_1___observer_01_4.html#a971c046ca73b1aa5a40035ef67801eae" xlink:title=" ">
<polygon fill="white" stroke="#666666" points="272.75,-32 149.5,-32 149.5,0 272.75,0 272.75,-32"/>
<text xml:space="preserve" text-anchor="start" x="157.5" y="-18.5" font-family="Helvetica,sans-Serif" font-size="10.00">smart_ptr&lt; T, RefType</text>
<text xml:space="preserve" text-anchor="middle" x="211.12" y="-6.5" font-family="Helvetica,sans-Serif" font-size="10.00">::_Observer &gt;::smart_ptr</text>
</a>
</g>
</g>
<!-- Node1&#45;&gt;Node2 -->
<g id="edge1_Node000001_Node000002" class="edge">
<title>Node1&#45;&gt;Node2</title>
<g id="a_edge1_Node000001_Node000002"><a xlink:title=" ">
<path fill="none" stroke="#63b8ff" d="M113.62,-16C121.47,-16 129.64,-16 137.74,-16"/>
<polygon fill="#63b8ff" stroke="#63b8ff" points="137.61,-19.5 147.61,-16 137.61,-12.5 137.61,-19.5"/>
</a>
</g>
</g>
<!-- Node2&#45;&gt;Node2 -->
<g id="edge2_Node000002_Node000002" class="edge">
<title>Node2&#45;&gt;Node2</title>
<g id="a_edge2_Node000002_Node000002"><a xlink:title=" ">
<path fill="none" stroke="#63b8ff" d="M183.56,-32.44C178.42,-41.58 187.61,-50 211.12,-50 223.99,-50 232.56,-47.48 236.85,-43.71"/>
<polygon fill="#63b8ff" stroke="#63b8ff" points="240.29,-44.37 238.44,-33.94 233.38,-43.24 240.29,-44.37"/>
</a>
</g>
</g>
</g>
</svg>
