<?xml version="1.0" encoding="UTF-8" standalone="no"?>
<!DOCTYPE svg PUBLIC "-//W3C//DTD SVG 1.1//EN"
 "http://www.w3.org/Graphics/SVG/1.1/DTD/svg11.dtd">
<!-- Generated by graphviz version 15.0.0 (20260523.1842)
 -->
<!-- Title: fstack::operator== Pages: 1 -->
<svg width="218pt" height="104pt"
 viewBox="0.00 0.00 218.00 104.00" xmlns="http://www.w3.org/2000/svg" xmlns:xlink="http://www.w3.org/1999/xlink">
<g id="graph0" class="graph" transform="scale(1 1) rotate(0) translate(4 100)">
<title>fstack::operator==</title>
<!-- Node1 -->
<g id="Node000001" class="node">
<title>Node1</title>
<g id="a_Node000001"><a xlink:title=" ">
<polygon fill="#999999" stroke="#666666" points="96.25,-58 0,-58 0,-38 96.25,-38 96.25,-58"/>
<text xml:space="preserve" text-anchor="middle" x="48.12" y="-44.5" font-family="Helvetica,sans-Serif" font-size="10.00">fstack::operator==</text>
</a>
</g>
</g>
<!-- Node2 -->
<g id="Node000002" class="node">
<title>Node2</title>
<g id="a_Node000002"><a xlink:href="$classfstack.html#a95b8c4c6dc06b18425ffd3696da8b309" xlink:title=" ">
<polygon fill="white" stroke="#666666" points="209.75,-96 132.25,-96 132.25,-76 209.75,-76 209.75,-96"/>
<text xml:space="preserve" text-anchor="middle" x="171" y="-82.5" font-family="Helvetica,sans-Serif" font-size="10.00">fstack::cbegin</text>
</a>
</g>
</g>
<!-- Node1&#45;&gt;Node2 -->
<g id="edge1_Node000001_Node000002" class="edge">
<title>Node1&#45;&gt;Node2</title>
<g id="a_edge1_Node000001_Node000002"><a xlink:title=" ">
<path fill="none" stroke="#63b8ff" d="M82.47,-58.48C95.95,-62.72 111.69,-67.67 126.08,-72.19"/>
<polygon fill="#63b8ff" stroke="#63b8ff" points="124.73,-75.44 135.32,-75.1 126.83,-68.76 124.73,-75.44"/>
</a>
</g>
</g>
<!-- Node3 -->
<g id="Node000003" class="node">
<title>Node3</title>
<g id="a_Node000003"><a xlink:href="$classfstack.html#aba590c33e4faabde02998305e4143681" xlink:title=" ">
<polygon fill="white" stroke="#666666" points="206,-58 136,-58 136,-38 206,-38 206,-58"/>
<text xml:space="preserve" text-anchor="middle" x="171" y="-44.5" font-family="Helvetica,sans-Serif" font-size="10.00">fstack::cend</text>
</a>
</g>
</g>
<!-- Node1&#45;&gt;Node3 -->
<g id="edge2_Node000001_Node000003" class="edge">
<title>Node1&#45;&gt;Node3</title>
<g id="a_edge2_Node000001_Node000003"><a xlink:title=" ">
<path fill="none" stroke="#63b8ff" d="M96.55,-48C105.76,-48 115.39,-48 124.53,-48"/>
<polygon fill="#63b8ff" stroke="#63b8ff" points="124.27,-51.5 134.27,-48 124.27,-44.5 124.27,-51.5"/>
</a>
</g>
</g>
<!-- Node4 -->
<g id="Node000004" class="node">
<title>Node4</title>
<g id="a_Node000004"><a xlink:href="$classfstack.html#a0081826bdd8a3cda0aff320d3dac4621" xlink:title=" ">
<polygon fill="white" stroke="#666666" points="209,-20 133,-20 133,0 209,0 209,-20"/>
<text xml:space="preserve" text-anchor="middle" x="171" y="-6.5" font-family="Helvetica,sans-Serif" font-size="10.00">fstack::fstack</text>
</a>
</g>
</g>
<!-- Node1&#45;&gt;Node4 -->
<g id="edge3_Node000001_Node000004" class="edge">
<title>Node1&#45;&gt;Node4</title>
<g id="a_edge3_Node000001_Node000004"><a xlink:title=" ">
<path fill="none" stroke="#63b8ff" d="M82.47,-37.52C95.95,-33.28 111.69,-28.33 126.08,-23.81"/>
<polygon fill="#63b8ff" stroke="#63b8ff" points="126.83,-27.24 135.32,-20.9 124.73,-20.56 126.83,-27.24"/>
</a>
</g>
</g>
</g>
</svg>
