<?xml version="1.0" encoding="UTF-8" standalone="no"?>
<!DOCTYPE svg PUBLIC "-//W3C//DTD SVG 1.1//EN"
 "http://www.w3.org/Graphics/SVG/1.1/DTD/svg11.dtd">
<!-- Generated by graphviz version 15.0.0 (20260523.1842)
 -->
<!-- Title: smart_ptr&lt; T, RefType::_Owner &gt;::__destruct_and_deallocate_all Pages: 1 -->
<svg width="428pt" height="115pt"
 viewBox="0.00 0.00 428.00 115.00" xmlns="http://www.w3.org/2000/svg" xmlns:xlink="http://www.w3.org/1999/xlink">
<g id="graph0" class="graph" transform="scale(1 1) rotate(0) translate(4 111)">
<title>smart_ptr&lt; T, RefType::_Owner &gt;::__destruct_and_deallocate_all</title>
<!-- Node1 -->
<g id="Node000001" class="node">
<title>Node1</title>
<g id="a_Node000001"><a xlink:title=" ">
<polygon fill="#999999" stroke="#666666" points="420,-63 303.5,-63 303.5,-19 420,-19 420,-63"/>
<text xml:space="preserve" text-anchor="start" x="311.5" y="-49.5" font-family="Helvetica,sans-Serif" font-size="10.00">smart_ptr&lt; T, RefType</text>
<text xml:space="preserve" text-anchor="start" x="311.5" y="-37.5" font-family="Helvetica,sans-Serif" font-size="10.00">::_Owner &gt;::__destruct</text>
<text xml:space="preserve" text-anchor="middle" x="361.75" y="-25.5" font-family="Helvetica,sans-Serif" font-size="10.00">_and_deallocate_all</text>
</a>
</g>
</g>
<!-- Node2 -->
<g id="Node000002" class="node">
<title>Node2</title>
<g id="a_Node000002"><a xlink:href="$classsmart__ptr_3_01_t_00_01_ref_type_1_1___owner_01_4.html#aab03b33abfa805cea9193a6461579551" xlink:title=" ">
<polygon fill="white" stroke="#666666" points="265.25,-82 151.75,-82 151.75,-50 265.25,-50 265.25,-82"/>
<text xml:space="preserve" text-anchor="start" x="159.75" y="-68.5" font-family="Helvetica,sans-Serif" font-size="10.00">smart_ptr&lt; T, RefType</text>
<text xml:space="preserve" text-anchor="middle" x="208.5" y="-56.5" font-family="Helvetica,sans-Serif" font-size="10.00">::_Owner &gt;::reset</text>
</a>
</g>
</g>
<!-- Node1&#45;&gt;Node2 -->
<g id="edge1_Node000001_Node000002" class="edge">
<title>Node1&#45;&gt;Node2</title>
<g id="a_edge1_Node000001_Node000002"><a xlink:title=" ">
<path fill="none" stroke="#63b8ff" d="M291.99,-52.37C283.11,-53.83 274.1,-55.32 265.45,-56.75"/>
<polygon fill="#63b8ff" stroke="#63b8ff" points="292.35,-55.85 301.64,-50.77 291.21,-48.95 292.35,-55.85"/>
</a>
</g>
</g>
<!-- Node5 -->
<g id="Node000005" class="node">
<title>Node5</title>
<g id="a_Node000005"><a xlink:href="$classsmart__ptr_3_01_t_00_01_ref_type_1_1___owner_01_4.html#adad50afce005ac18d4f2d65aef2ae147" xlink:title=" ">
<polygon fill="white" stroke="#666666" points="267.5,-32 149.5,-32 149.5,0 267.5,0 267.5,-32"/>
<text xml:space="preserve" text-anchor="start" x="157.5" y="-18.5" font-family="Helvetica,sans-Serif" font-size="10.00">smart_ptr&lt; T, RefType</text>
<text xml:space="preserve" text-anchor="middle" x="208.5" y="-6.5" font-family="Helvetica,sans-Serif" font-size="10.00">::_Owner &gt;::~smart_ptr</text>
</a>
</g>
</g>
<!-- Node1&#45;&gt;Node5 -->
<g id="edge4_Node000001_Node000005" class="edge">
<title>Node1&#45;&gt;Node5</title>
<g id="a_edge4_Node000001_Node000005"><a xlink:title=" ">
<path fill="none" stroke="#63b8ff" d="M291.92,-29.62C283.91,-28.3 275.8,-26.96 267.96,-25.66"/>
<polygon fill="#63b8ff" stroke="#63b8ff" points="291.21,-33.05 301.64,-31.23 292.35,-26.15 291.21,-33.05"/>
</a>
</g>
</g>
<!-- Node3 -->
<g id="Node000003" class="node">
<title>Node3</title>
<g id="a_Node000003"><a xlink:href="$classsmart__ptr_3_01_t_00_01_ref_type_1_1___owner_01_4.html#aee2df4bcfad98f666cc6fab32ba534cd" xlink:title=" ">
<polygon fill="white" stroke="#666666" points="113.5,-107 0,-107 0,-75 113.5,-75 113.5,-107"/>
<text xml:space="preserve" text-anchor="start" x="8" y="-93.5" font-family="Helvetica,sans-Serif" font-size="10.00">smart_ptr&lt; T, RefType</text>
<text xml:space="preserve" text-anchor="middle" x="56.75" y="-81.5" font-family="Helvetica,sans-Serif" font-size="10.00">::_Owner &gt;::operator=</text>
</a>
</g>
</g>
<!-- Node2&#45;&gt;Node3 -->
<g id="edge2_Node000002_Node000003" class="edge">
<title>Node2&#45;&gt;Node3</title>
<g id="a_edge2_Node000002_Node000003"><a xlink:title=" ">
<path fill="none" stroke="#63b8ff" d="M140.22,-77.23C131.37,-78.71 122.39,-80.21 113.75,-81.65"/>
<polygon fill="#63b8ff" stroke="#63b8ff" points="140.53,-80.73 149.82,-75.63 139.38,-73.82 140.53,-80.73"/>
</a>
</g>
</g>
<!-- Node4 -->
<g id="Node000004" class="node">
<title>Node4</title>
<g id="a_Node000004"><a xlink:href="$classsmart__ptr_3_01_t_00_01_ref_type_1_1___owner_01_4.html#a541759d9d5ff36e4298e702a09be47a9" xlink:title=" ">
<polygon fill="white" stroke="#666666" points="113.5,-57 0,-57 0,-25 113.5,-25 113.5,-57"/>
<text xml:space="preserve" text-anchor="start" x="8" y="-43.5" font-family="Helvetica,sans-Serif" font-size="10.00">smart_ptr&lt; T, RefType</text>
<text xml:space="preserve" text-anchor="middle" x="56.75" y="-31.5" font-family="Helvetica,sans-Serif" font-size="10.00">::_Owner &gt;::operator=</text>
</a>
</g>
</g>
<!-- Node2&#45;&gt;Node4 -->
<g id="edge3_Node000002_Node000004" class="edge">
<title>Node2&#45;&gt;Node4</title>
<g id="a_edge3_Node000002_Node000004"><a xlink:title=" ">
<path fill="none" stroke="#63b8ff" d="M140.22,-54.77C131.37,-53.29 122.39,-51.79 113.75,-50.35"/>
<polygon fill="#63b8ff" stroke="#63b8ff" points="139.38,-58.18 149.82,-56.37 140.53,-51.27 139.38,-58.18"/>
</a>
</g>
</g>
</g>
</svg>
