<?xml version="1.0" encoding="UTF-8" standalone="no"?>
<!DOCTYPE svg PUBLIC "-//W3C//DTD SVG 1.1//EN"
 "http://www.w3.org/Graphics/SVG/1.1/DTD/svg11.dtd">
<!-- Generated by graphviz version 15.0.0 (20260523.1842)
 -->
<!-- Title: iterator_cast Pages: 1 -->
<svg width="515pt" height="595pt"
 viewBox="0.00 0.00 515.00 595.00" xmlns="http://www.w3.org/2000/svg" xmlns:xlink="http://www.w3.org/1999/xlink">
<g id="graph0" class="graph" transform="scale(1 1) rotate(0) translate(4 591)">
<title>iterator_cast</title>
<!-- Node1 -->
<g id="Node000001" class="node">
<title>Node1</title>
<g id="a_Node000001"><a xlink:title=" ">
<polygon fill="#999999" stroke="#666666" points="507,-322 437,-322 437,-302 507,-302 507,-322"/>
<text xml:space="preserve" text-anchor="middle" x="472" y="-308.5" font-family="Helvetica,sans-Serif" font-size="10.00">iterator_cast</text>
</a>
</g>
</g>
<!-- Node2 -->
<g id="Node000002" class="node">
<title>Node2</title>
<g id="a_Node000002"><a xlink:href="$classmemory__traits_3_01_t_00_01_dest_address_alignment_00_01_source_address_alignment_00_01_typecce90a1879ef9dce2b9ecbcb369274b.html#a73d7ab7d585fbc97e3546af057eeed02" xlink:title=" ">
<polygon fill="white" stroke="#666666" points="401,-587 222.25,-587 222.25,-531 401,-531 401,-587"/>
<text xml:space="preserve" text-anchor="start" x="230.25" y="-573.5" font-family="Helvetica,sans-Serif" font-size="10.00">memory_traits&lt; T, DestAddress</text>
<text xml:space="preserve" text-anchor="start" x="230.25" y="-561.5" font-family="Helvetica,sans-Serif" font-size="10.00">Alignment, SourceAddressAlignment,</text>
<text xml:space="preserve" text-anchor="start" x="230.25" y="-549.5" font-family="Helvetica,sans-Serif" font-size="10.00"> TypeTriviality::_NotTrivial &gt;</text>
<text xml:space="preserve" text-anchor="middle" x="311.62" y="-537.5" font-family="Helvetica,sans-Serif" font-size="10.00">::construct</text>
</a>
</g>
</g>
<!-- Node1&#45;&gt;Node2 -->
<g id="edge1_Node000001_Node000002" class="edge">
<title>Node1&#45;&gt;Node2</title>
<g id="a_edge1_Node000001_Node000002"><a xlink:title=" ">
<path fill="none" stroke="#63b8ff" d="M469.57,-333.68C465.69,-375.39 451.59,-467.48 401,-522 398.06,-525.17 394.8,-528.08 391.33,-530.74"/>
<polygon fill="#63b8ff" stroke="#63b8ff" points="473.05,-333.99 470.36,-323.74 466.07,-333.43 473.05,-333.99"/>
</a>
</g>
</g>
<!-- Node3 -->
<g id="Node000003" class="node">
<title>Node3</title>
<g id="a_Node000003"><a xlink:href="$classmemory__traits_3_01_t_00_01_dest_address_alignment_00_01_source_address_alignment_00_01_type_triviality_1_1___trivial_01_4.html#acebc5a135463ed0cf8091c68470cefe3" xlink:title=" ">
<polygon fill="white" stroke="#666666" points="401,-513 222.25,-513 222.25,-469 401,-469 401,-513"/>
<text xml:space="preserve" text-anchor="start" x="230.25" y="-499.5" font-family="Helvetica,sans-Serif" font-size="10.00">memory_traits&lt; T, DestAddress</text>
<text xml:space="preserve" text-anchor="start" x="230.25" y="-487.5" font-family="Helvetica,sans-Serif" font-size="10.00">Alignment, SourceAddressAlignment,</text>
<text xml:space="preserve" text-anchor="middle" x="311.62" y="-475.5" font-family="Helvetica,sans-Serif" font-size="10.00"> TypeTriviality::_Trivial &gt;::construct</text>
</a>
</g>
</g>
<!-- Node1&#45;&gt;Node3 -->
<g id="edge2_Node000001_Node000003" class="edge">
<title>Node1&#45;&gt;Node3</title>
<g id="a_edge2_Node000001_Node000003"><a xlink:title=" ">
<path fill="none" stroke="#63b8ff" d="M466.45,-333.35C458.57,-365.27 439.41,-425.41 401,-460 397.5,-463.16 393.65,-465.99 389.59,-468.55"/>
<polygon fill="#63b8ff" stroke="#63b8ff" points="469.83,-334.25 468.67,-323.72 463.01,-332.68 469.83,-334.25"/>
</a>
</g>
</g>
<!-- Node5 -->
<g id="Node000005" class="node">
<title>Node5</title>
<g id="a_Node000005"><a xlink:href="$classmemory__traits_3_01_t_00_01_dest_address_alignment_00_01_source_address_alignment_00_01_typecce90a1879ef9dce2b9ecbcb369274b.html#a7f63f596d87327b3ff2fba3ee3526b46" xlink:title=" ">
<polygon fill="white" stroke="#666666" points="401,-451 222.25,-451 222.25,-395 401,-395 401,-451"/>
<text xml:space="preserve" text-anchor="start" x="230.25" y="-437.5" font-family="Helvetica,sans-Serif" font-size="10.00">memory_traits&lt; T, DestAddress</text>
<text xml:space="preserve" text-anchor="start" x="230.25" y="-425.5" font-family="Helvetica,sans-Serif" font-size="10.00">Alignment, SourceAddressAlignment,</text>
<text xml:space="preserve" text-anchor="start" x="230.25" y="-413.5" font-family="Helvetica,sans-Serif" font-size="10.00"> TypeTriviality::_NotTrivial &gt;</text>
<text xml:space="preserve" text-anchor="middle" x="311.62" y="-401.5" font-family="Helvetica,sans-Serif" font-size="10.00">::copy_construct</text>
</a>
</g>
</g>
<!-- Node1&#45;&gt;Node5 -->
<g id="edge4_Node000001_Node000005" class="edge">
<title>Node1&#45;&gt;Node5</title>
<g id="a_edge4_Node000001_Node000005"><a xlink:title=" ">
<path fill="none" stroke="#63b8ff" d="M456.71,-331.1C443.68,-347.45 423.13,-370.7 401,-386 396.62,-389.03 391.96,-391.87 387.15,-394.54"/>
<polygon fill="#63b8ff" stroke="#63b8ff" points="459.18,-333.63 462.54,-323.58 453.65,-329.34 459.18,-333.63"/>
</a>
</g>
</g>
<!-- Node6 -->
<g id="Node000006" class="node">
<title>Node6</title>
<g id="a_Node000006"><a xlink:href="$classmemory__traits_3_01_t_00_01_dest_address_alignment_00_01_source_address_alignment_00_01_typecce90a1879ef9dce2b9ecbcb369274b.html#a190e8d7c971d79ce53415b968097caf5" xlink:title=" ">
<polygon fill="white" stroke="#666666" points="401,-377 222.25,-377 222.25,-321 401,-321 401,-377"/>
<text xml:space="preserve" text-anchor="start" x="230.25" y="-363.5" font-family="Helvetica,sans-Serif" font-size="10.00">memory_traits&lt; T, DestAddress</text>
<text xml:space="preserve" text-anchor="start" x="230.25" y="-351.5" font-family="Helvetica,sans-Serif" font-size="10.00">Alignment, SourceAddressAlignment,</text>
<text xml:space="preserve" text-anchor="start" x="230.25" y="-339.5" font-family="Helvetica,sans-Serif" font-size="10.00"> TypeTriviality::_NotTrivial &gt;</text>
<text xml:space="preserve" text-anchor="middle" x="311.62" y="-327.5" font-family="Helvetica,sans-Serif" font-size="10.00">::copy_construct</text>
</a>
</g>
</g>
<!-- Node1&#45;&gt;Node6 -->
<g id="edge5_Node000001_Node000006" class="edge">
<title>Node1&#45;&gt;Node6</title>
<g id="a_edge5_Node000001_Node000006"><a xlink:title=" ">
<path fill="none" stroke="#63b8ff" d="M425.51,-322.63C417.89,-324.41 409.76,-326.31 401.48,-328.24"/>
<polygon fill="#63b8ff" stroke="#63b8ff" points="426.22,-326.06 435.16,-320.37 424.63,-319.24 426.22,-326.06"/>
</a>
</g>
</g>
<!-- Node7 -->
<g id="Node000007" class="node">
<title>Node7</title>
<g id="a_Node000007"><a xlink:href="$classmemory__traits_3_01_t_00_01_dest_address_alignment_00_01_source_address_alignment_00_01_type_triviality_1_1___trivial_01_4.html#ac33546481ff664ac6f64ca13831ef638" xlink:title=" ">
<polygon fill="white" stroke="#666666" points="401,-303 222.25,-303 222.25,-247 401,-247 401,-303"/>
<text xml:space="preserve" text-anchor="start" x="230.25" y="-289.5" font-family="Helvetica,sans-Serif" font-size="10.00">memory_traits&lt; T, DestAddress</text>
<text xml:space="preserve" text-anchor="start" x="230.25" y="-277.5" font-family="Helvetica,sans-Serif" font-size="10.00">Alignment, SourceAddressAlignment,</text>
<text xml:space="preserve" text-anchor="start" x="230.25" y="-265.5" font-family="Helvetica,sans-Serif" font-size="10.00"> TypeTriviality::_Trivial &gt;::copy</text>
<text xml:space="preserve" text-anchor="middle" x="311.62" y="-253.5" font-family="Helvetica,sans-Serif" font-size="10.00">_construct</text>
</a>
</g>
</g>
<!-- Node1&#45;&gt;Node7 -->
<g id="edge6_Node000001_Node000007" class="edge">
<title>Node1&#45;&gt;Node7</title>
<g id="a_edge6_Node000001_Node000007"><a xlink:title=" ">
<path fill="none" stroke="#63b8ff" d="M425.51,-301.37C417.89,-299.59 409.76,-297.69 401.48,-295.76"/>
<polygon fill="#63b8ff" stroke="#63b8ff" points="424.63,-304.76 435.16,-303.63 426.22,-297.94 424.63,-304.76"/>
</a>
</g>
</g>
<!-- Node8 -->
<g id="Node000008" class="node">
<title>Node8</title>
<g id="a_Node000008"><a xlink:href="$classmemory__traits_3_01_t_00_01_dest_address_alignment_00_01_source_address_alignment_00_01_type_triviality_1_1___trivial_01_4.html#a49bd715490bc4bc206485c30f1e955c1" xlink:title=" ">
<polygon fill="white" stroke="#666666" points="401,-229 222.25,-229 222.25,-173 401,-173 401,-229"/>
<text xml:space="preserve" text-anchor="start" x="230.25" y="-215.5" font-family="Helvetica,sans-Serif" font-size="10.00">memory_traits&lt; T, DestAddress</text>
<text xml:space="preserve" text-anchor="start" x="230.25" y="-203.5" font-family="Helvetica,sans-Serif" font-size="10.00">Alignment, SourceAddressAlignment,</text>
<text xml:space="preserve" text-anchor="start" x="230.25" y="-191.5" font-family="Helvetica,sans-Serif" font-size="10.00"> TypeTriviality::_Trivial &gt;::copy</text>
<text xml:space="preserve" text-anchor="middle" x="311.62" y="-179.5" font-family="Helvetica,sans-Serif" font-size="10.00">_construct</text>
</a>
</g>
</g>
<!-- Node1&#45;&gt;Node8 -->
<g id="edge7_Node000001_Node000008" class="edge">
<title>Node1&#45;&gt;Node8</title>
<g id="a_edge7_Node000001_Node000008"><a xlink:title=" ">
<path fill="none" stroke="#63b8ff" d="M456.71,-292.9C443.68,-276.55 423.13,-253.3 401,-238 396.62,-234.97 391.96,-232.13 387.15,-229.46"/>
<polygon fill="#63b8ff" stroke="#63b8ff" points="453.65,-294.66 462.54,-300.42 459.18,-290.37 453.65,-294.66"/>
</a>
</g>
</g>
<!-- Node15 -->
<g id="Node000015" class="node">
<title>Node15</title>
<g id="a_Node000015"><a xlink:href="$classmemory__traits_3_01_t_00_01_dest_address_alignment_00_01_source_address_alignment_00_01_typecce90a1879ef9dce2b9ecbcb369274b.html#a1f4cfb4b66e16e53abe3cd6c60cd32f1" xlink:title=" ">
<polygon fill="white" stroke="#666666" points="401,-155 222.25,-155 222.25,-99 401,-99 401,-155"/>
<text xml:space="preserve" text-anchor="start" x="230.25" y="-141.5" font-family="Helvetica,sans-Serif" font-size="10.00">memory_traits&lt; T, DestAddress</text>
<text xml:space="preserve" text-anchor="start" x="230.25" y="-129.5" font-family="Helvetica,sans-Serif" font-size="10.00">Alignment, SourceAddressAlignment,</text>
<text xml:space="preserve" text-anchor="start" x="230.25" y="-117.5" font-family="Helvetica,sans-Serif" font-size="10.00"> TypeTriviality::_NotTrivial &gt;</text>
<text xml:space="preserve" text-anchor="middle" x="311.62" y="-105.5" font-family="Helvetica,sans-Serif" font-size="10.00">::move_construct</text>
</a>
</g>
</g>
<!-- Node1&#45;&gt;Node15 -->
<g id="edge14_Node000001_Node000015" class="edge">
<title>Node1&#45;&gt;Node15</title>
<g id="a_edge14_Node000001_Node000015"><a xlink:title=" ">
<path fill="none" stroke="#63b8ff" d="M466.07,-290.47C457.78,-258.8 438.19,-199.54 401,-164 397.75,-160.9 394.21,-158.04 390.46,-155.4"/>
<polygon fill="#63b8ff" stroke="#63b8ff" points="462.64,-291.17 468.43,-300.04 469.43,-289.5 462.64,-291.17"/>
</a>
</g>
</g>
<!-- Node16 -->
<g id="Node000016" class="node">
<title>Node16</title>
<g id="a_Node000016"><a xlink:href="$classmemory__traits_3_01_t_00_01_dest_address_alignment_00_01_source_address_alignment_00_01_typecce90a1879ef9dce2b9ecbcb369274b.html#a97f622b9c302cefd429bfb124444529b" xlink:title=" ">
<polygon fill="white" stroke="#666666" points="401,-81 222.25,-81 222.25,-25 401,-25 401,-81"/>
<text xml:space="preserve" text-anchor="start" x="230.25" y="-67.5" font-family="Helvetica,sans-Serif" font-size="10.00">memory_traits&lt; T, DestAddress</text>
<text xml:space="preserve" text-anchor="start" x="230.25" y="-55.5" font-family="Helvetica,sans-Serif" font-size="10.00">Alignment, SourceAddressAlignment,</text>
<text xml:space="preserve" text-anchor="start" x="230.25" y="-43.5" font-family="Helvetica,sans-Serif" font-size="10.00"> TypeTriviality::_NotTrivial &gt;</text>
<text xml:space="preserve" text-anchor="middle" x="311.62" y="-31.5" font-family="Helvetica,sans-Serif" font-size="10.00">::move_construct</text>
</a>
</g>
</g>
<!-- Node1&#45;&gt;Node16 -->
<g id="edge15_Node000001_Node000016" class="edge">
<title>Node1&#45;&gt;Node16</title>
<g id="a_edge15_Node000001_Node000016"><a xlink:title=" ">
<path fill="none" stroke="#63b8ff" d="M470.03,-290.28C466.97,-246.81 454.2,-148.28 401,-90 398.08,-86.81 394.85,-83.88 391.39,-81.2"/>
<polygon fill="#63b8ff" stroke="#63b8ff" points="466.53,-290.39 470.61,-300.17 473.52,-289.98 466.53,-290.39"/>
</a>
</g>
</g>
<!-- Node4 -->
<g id="Node000004" class="node">
<title>Node4</title>
<g id="a_Node000004"><a xlink:href="$classmemory__traits_3_01_t_00_01_dest_address_alignment_00_01_source_address_alignment_00_01_type_triviality_1_1___trivial_01_4.html#a1334bb2240aecd64d2ec93801e3de9f6" xlink:title=" ">
<polygon fill="white" stroke="#666666" points="182.5,-513 3.75,-513 3.75,-469 182.5,-469 182.5,-513"/>
<text xml:space="preserve" text-anchor="start" x="11.75" y="-499.5" font-family="Helvetica,sans-Serif" font-size="10.00">memory_traits&lt; T, DestAddress</text>
<text xml:space="preserve" text-anchor="start" x="11.75" y="-487.5" font-family="Helvetica,sans-Serif" font-size="10.00">Alignment, SourceAddressAlignment,</text>
<text xml:space="preserve" text-anchor="middle" x="93.12" y="-475.5" font-family="Helvetica,sans-Serif" font-size="10.00"> TypeTriviality::_Trivial &gt;::assign</text>
</a>
</g>
</g>
<!-- Node3&#45;&gt;Node4 -->
<g id="edge3_Node000003_Node000004" class="edge">
<title>Node3&#45;&gt;Node4</title>
<g id="a_edge3_Node000003_Node000004"><a xlink:title=" ">
<path fill="none" stroke="#63b8ff" d="M210.62,-491C201.29,-491 191.88,-491 182.67,-491"/>
<polygon fill="#63b8ff" stroke="#63b8ff" points="210.43,-494.5 220.43,-491 210.43,-487.5 210.43,-494.5"/>
</a>
</g>
</g>
<!-- Node9 -->
<g id="Node000009" class="node">
<title>Node9</title>
<g id="a_Node000009"><a xlink:href="$classmemory__traits_3_01_t_00_01_dest_address_alignment_00_01_source_address_alignment_00_01_type_triviality_1_1___trivial_01_4.html#a4495990be145c4216cd1b18ecac1f64d" xlink:title=" ">
<polygon fill="white" stroke="#666666" points="184.75,-378 1.5,-378 1.5,-334 184.75,-334 184.75,-378"/>
<text xml:space="preserve" text-anchor="start" x="9.5" y="-364.5" font-family="Helvetica,sans-Serif" font-size="10.00">memory_traits&lt; T, DestAddress</text>
<text xml:space="preserve" text-anchor="start" x="9.5" y="-352.5" font-family="Helvetica,sans-Serif" font-size="10.00">Alignment, SourceAddressAlignment,</text>
<text xml:space="preserve" text-anchor="middle" x="93.12" y="-340.5" font-family="Helvetica,sans-Serif" font-size="10.00"> TypeTriviality::_Trivial &gt;::copy_assign</text>
</a>
</g>
</g>
<!-- Node8&#45;&gt;Node9 -->
<g id="edge8_Node000008_Node000009" class="edge">
<title>Node8&#45;&gt;Node9</title>
<g id="a_edge8_Node000008_Node000009"><a xlink:title=" ">
<path fill="none" stroke="#63b8ff" d="M223.76,-236.53C223.25,-237.01 222.75,-237.5 222.25,-238 192.72,-267.65 216.82,-296.43 186.25,-325 182.8,-328.23 179,-331.12 174.97,-333.71"/>
<polygon fill="#63b8ff" stroke="#63b8ff" points="225.96,-239.25 231.43,-230.18 221.5,-233.86 225.96,-239.25"/>
</a>
</g>
</g>
<!-- Node10 -->
<g id="Node000010" class="node">
<title>Node10</title>
<g id="a_Node000010"><a xlink:href="$classmemory__traits_3_01_t_00_01_dest_address_alignment_00_01_source_address_alignment_00_01_type_triviality_1_1___trivial_01_4.html#acd1755d338a7b9e0aaf1b6e9752ed3b1" xlink:title=" ">
<polygon fill="white" stroke="#666666" points="184.75,-316 1.5,-316 1.5,-272 184.75,-272 184.75,-316"/>
<text xml:space="preserve" text-anchor="start" x="9.5" y="-302.5" font-family="Helvetica,sans-Serif" font-size="10.00">memory_traits&lt; T, DestAddress</text>
<text xml:space="preserve" text-anchor="start" x="9.5" y="-290.5" font-family="Helvetica,sans-Serif" font-size="10.00">Alignment, SourceAddressAlignment,</text>
<text xml:space="preserve" text-anchor="middle" x="93.12" y="-278.5" font-family="Helvetica,sans-Serif" font-size="10.00"> TypeTriviality::_Trivial &gt;::copy_assign</text>
</a>
</g>
</g>
<!-- Node8&#45;&gt;Node10 -->
<g id="edge9_Node000008_Node000010" class="edge">
<title>Node8&#45;&gt;Node10</title>
<g id="a_edge9_Node000008_Node000010"><a xlink:title=" ">
<path fill="none" stroke="#63b8ff" d="M228.95,-234.44C226.68,-235.61 224.44,-236.8 222.25,-238 205.17,-247.37 203.65,-254.25 186.25,-263 180.22,-266.03 173.82,-268.87 167.32,-271.51"/>
<polygon fill="#63b8ff" stroke="#63b8ff" points="230.34,-237.66 237.74,-230.08 227.23,-231.38 230.34,-237.66"/>
</a>
</g>
</g>
<!-- Node11 -->
<g id="Node000011" class="node">
<title>Node11</title>
<g id="a_Node000011"><a xlink:href="$classmemory__traits_3_01_t_00_01_dest_address_alignment_00_01_source_address_alignment_00_01_type_triviality_1_1___trivial_01_4.html#a148357eb4bed53f4bb5379ae5f979099" xlink:title=" ">
<polygon fill="white" stroke="#666666" points="186.25,-254 0,-254 0,-210 186.25,-210 186.25,-254"/>
<text xml:space="preserve" text-anchor="start" x="8" y="-240.5" font-family="Helvetica,sans-Serif" font-size="10.00">memory_traits&lt; T, DestAddress</text>
<text xml:space="preserve" text-anchor="start" x="8" y="-228.5" font-family="Helvetica,sans-Serif" font-size="10.00">Alignment, SourceAddressAlignment,</text>
<text xml:space="preserve" text-anchor="middle" x="93.12" y="-216.5" font-family="Helvetica,sans-Serif" font-size="10.00"> TypeTriviality::_Trivial &gt;::move_assign</text>
</a>
</g>
</g>
<!-- Node8&#45;&gt;Node11 -->
<g id="edge10_Node000008_Node000011" class="edge">
<title>Node8&#45;&gt;Node11</title>
<g id="a_edge10_Node000008_Node000011"><a xlink:title=" ">
<path fill="none" stroke="#63b8ff" d="M210.64,-215.32C202.61,-216.47 194.51,-217.63 186.53,-218.77"/>
<polygon fill="#63b8ff" stroke="#63b8ff" points="211.04,-218.8 220.44,-213.91 210.05,-211.87 211.04,-218.8"/>
</a>
</g>
</g>
<!-- Node12 -->
<g id="Node000012" class="node">
<title>Node12</title>
<g id="a_Node000012"><a xlink:href="$classmemory__traits_3_01_t_00_01_dest_address_alignment_00_01_source_address_alignment_00_01_type_triviality_1_1___trivial_01_4.html#a5f5a7e769c86c719182b36019a4d9270" xlink:title=" ">
<polygon fill="white" stroke="#666666" points="186.25,-192 0,-192 0,-148 186.25,-148 186.25,-192"/>
<text xml:space="preserve" text-anchor="start" x="8" y="-178.5" font-family="Helvetica,sans-Serif" font-size="10.00">memory_traits&lt; T, DestAddress</text>
<text xml:space="preserve" text-anchor="start" x="8" y="-166.5" font-family="Helvetica,sans-Serif" font-size="10.00">Alignment, SourceAddressAlignment,</text>
<text xml:space="preserve" text-anchor="middle" x="93.12" y="-154.5" font-family="Helvetica,sans-Serif" font-size="10.00"> TypeTriviality::_Trivial &gt;::move_assign</text>
</a>
</g>
</g>
<!-- Node8&#45;&gt;Node12 -->
<g id="edge11_Node000008_Node000012" class="edge">
<title>Node8&#45;&gt;Node12</title>
<g id="a_edge11_Node000008_Node000012"><a xlink:title=" ">
<path fill="none" stroke="#63b8ff" d="M210.64,-186.68C202.61,-185.53 194.51,-184.37 186.53,-183.23"/>
<polygon fill="#63b8ff" stroke="#63b8ff" points="210.05,-190.13 220.44,-188.09 211.04,-183.2 210.05,-190.13"/>
</a>
</g>
</g>
<!-- Node13 -->
<g id="Node000013" class="node">
<title>Node13</title>
<g id="a_Node000013"><a xlink:href="$classmemory__traits_3_01_t_00_01_dest_address_alignment_00_01_source_address_alignment_00_01_type_triviality_1_1___trivial_01_4.html#a73d5bb5782ca88664f809fc3d734d831" xlink:title=" ">
<polygon fill="white" stroke="#666666" points="182.5,-130 3.75,-130 3.75,-74 182.5,-74 182.5,-130"/>
<text xml:space="preserve" text-anchor="start" x="11.75" y="-116.5" font-family="Helvetica,sans-Serif" font-size="10.00">memory_traits&lt; T, DestAddress</text>
<text xml:space="preserve" text-anchor="start" x="11.75" y="-104.5" font-family="Helvetica,sans-Serif" font-size="10.00">Alignment, SourceAddressAlignment,</text>
<text xml:space="preserve" text-anchor="start" x="11.75" y="-92.5" font-family="Helvetica,sans-Serif" font-size="10.00"> TypeTriviality::_Trivial &gt;::move</text>
<text xml:space="preserve" text-anchor="middle" x="93.12" y="-80.5" font-family="Helvetica,sans-Serif" font-size="10.00">_construct</text>
</a>
</g>
</g>
<!-- Node8&#45;&gt;Node13 -->
<g id="edge12_Node000008_Node000013" class="edge">
<title>Node8&#45;&gt;Node13</title>
<g id="a_edge12_Node000008_Node000013"><a xlink:title=" ">
<path fill="none" stroke="#63b8ff" d="M228.95,-167.56C226.68,-166.39 224.44,-165.2 222.25,-164 205.17,-154.63 203.4,-148.24 186.25,-139 180.79,-136.06 175.04,-133.21 169.2,-130.49"/>
<polygon fill="#63b8ff" stroke="#63b8ff" points="227.23,-170.62 237.74,-171.92 230.34,-164.34 227.23,-170.62"/>
</a>
</g>
</g>
<!-- Node14 -->
<g id="Node000014" class="node">
<title>Node14</title>
<g id="a_Node000014"><a xlink:href="$classmemory__traits_3_01_t_00_01_dest_address_alignment_00_01_source_address_alignment_00_01_type_triviality_1_1___trivial_01_4.html#abbc433d19a903a0d5959a00f0acb53e1" xlink:title=" ">
<polygon fill="white" stroke="#666666" points="182.5,-56 3.75,-56 3.75,0 182.5,0 182.5,-56"/>
<text xml:space="preserve" text-anchor="start" x="11.75" y="-42.5" font-family="Helvetica,sans-Serif" font-size="10.00">memory_traits&lt; T, DestAddress</text>
<text xml:space="preserve" text-anchor="start" x="11.75" y="-30.5" font-family="Helvetica,sans-Serif" font-size="10.00">Alignment, SourceAddressAlignment,</text>
<text xml:space="preserve" text-anchor="start" x="11.75" y="-18.5" font-family="Helvetica,sans-Serif" font-size="10.00"> TypeTriviality::_Trivial &gt;::move</text>
<text xml:space="preserve" text-anchor="middle" x="93.12" y="-6.5" font-family="Helvetica,sans-Serif" font-size="10.00">_construct</text>
</a>
</g>
</g>
<!-- Node8&#45;&gt;Node14 -->
<g id="edge13_Node000008_Node000014" class="edge">
<title>Node8&#45;&gt;Node14</title>
<g id="a_edge13_Node000008_Node000014"><a xlink:title=" ">
<path fill="none" stroke="#63b8ff" d="M223.38,-165.16C223,-164.78 222.62,-164.39 222.25,-164 189.94,-130.11 218.8,-98.65 186.25,-65 183.25,-61.9 179.96,-59.06 176.47,-56.45"/>
<polygon fill="#63b8ff" stroke="#63b8ff" points="221.03,-167.76 230.88,-171.66 225.61,-162.46 221.03,-167.76"/>
</a>
</g>
</g>
</g>
</svg>
