<?xml version="1.0" encoding="UTF-8" standalone="no"?>
<!DOCTYPE svg PUBLIC "-//W3C//DTD SVG 1.1//EN"
 "http://www.w3.org/Graphics/SVG/1.1/DTD/svg11.dtd">
<!-- Generated by graphviz version 15.0.0 (20260523.1842)
 -->
<!-- Title: property_metadata Pages: 1 -->
<svg width="463pt" height="118pt"
 viewBox="0.00 0.00 463.00 118.00" xmlns="http://www.w3.org/2000/svg" xmlns:xlink="http://www.w3.org/1999/xlink">
<g id="graph0" class="graph" transform="scale(1 1) rotate(0) translate(4 114)">
<title>property_metadata</title>
<!-- Node1 -->
<g id="Node000001" class="node">
<title>Node1</title>
<g id="a_Node000001"><a xlink:title=" ">
<polygon fill="#999999" stroke="#666666" points="253.38,-20 156.38,-20 156.38,0 253.38,0 253.38,-20"/>
<text xml:space="preserve" text-anchor="middle" x="204.88" y="-6.5" font-family="Helvetica,sans-Serif" font-size="10.00">property_metadata</text>
</a>
</g>
</g>
<!-- Node2 -->
<g id="Node000002" class="node">
<title>Node2</title>
<g id="a_Node000002"><a xlink:title=" ">
<polygon fill="white" stroke="#666666" points="73.75,-110 0,-110 0,-90 73.75,-90 73.75,-110"/>
<text xml:space="preserve" text-anchor="middle" x="36.88" y="-96.5" font-family="Helvetica,sans-Serif" font-size="10.00">TypeTriviality</text>
</a>
</g>
</g>
<!-- Node2&#45;&gt;Node1 -->
<g id="edge1_Node000001_Node000002" class="edge">
<title>Node2&#45;&gt;Node1</title>
<g id="a_edge1_Node000001_Node000002"><a xlink:title=" ">
<path fill="none" stroke="#9a32cd" stroke-dasharray="5,2" d="M39.68,-78.39C42.61,-64.91 48.57,-48 60.62,-38 74.99,-26.09 120.16,-18.97 156.16,-15.06"/>
<polygon fill="#9a32cd" stroke="#9a32cd" points="36.27,-77.57 38.01,-88.02 43.16,-78.77 36.27,-77.57"/>
</a>
</g>
<text xml:space="preserve" text-anchor="start" x="63.62" y="-51.25" font-family="Helvetica,sans-Serif" font-size="10.00" fill="grey">_is_trivial</text>
</g>
<!-- Node3 -->
<g id="Node000003" class="node">
<title>Node3</title>
<g id="a_Node000003"><a xlink:title=" ">
<polygon fill="white" stroke="#666666" points="125.88,-110 91.88,-110 91.88,-90 125.88,-90 125.88,-110"/>
<text xml:space="preserve" text-anchor="middle" x="108.88" y="-96.5" font-family="Helvetica,sans-Serif" font-size="10.00">bool</text>
</a>
</g>
</g>
<!-- Node3&#45;&gt;Node1 -->
<g id="edge2_Node000001_Node000003" class="edge">
<title>Node3&#45;&gt;Node1</title>
<g id="a_edge2_Node000001_Node000003"><a xlink:title=" ">
<path fill="none" stroke="#9a32cd" stroke-dasharray="5,2" d="M110.66,-78.63C112.82,-65.49 117.59,-48.88 128.12,-38 135.89,-29.98 146.17,-24.34 156.67,-20.37"/>
<polygon fill="#9a32cd" stroke="#9a32cd" points="107.21,-78.01 109.47,-88.36 114.15,-78.86 107.21,-78.01"/>
</a>
</g>
<text xml:space="preserve" text-anchor="start" x="131.12" y="-51.25" font-family="Helvetica,sans-Serif" font-size="10.00" fill="grey">_is_serializable</text>
</g>
<!-- Node4 -->
<g id="Node000004" class="node">
<title>Node4</title>
<g id="a_Node000004"><a xlink:title=" ">
<polygon fill="white" stroke="#666666" points="230.12,-110 179.62,-110 179.62,-90 230.12,-90 230.12,-110"/>
<text xml:space="preserve" text-anchor="middle" x="204.88" y="-96.5" font-family="Helvetica,sans-Serif" font-size="10.00">uint32_t</text>
</a>
</g>
</g>
<!-- Node4&#45;&gt;Node1 -->
<g id="edge3_Node000001_Node000004" class="edge">
<title>Node4&#45;&gt;Node1</title>
<g id="a_edge3_Node000001_Node000004"><a xlink:title=" ">
<path fill="none" stroke="#9a32cd" stroke-dasharray="5,2" d="M204.88,-78.09C204.88,-59.77 204.88,-34.01 204.88,-20.35"/>
<polygon fill="#9a32cd" stroke="#9a32cd" points="201.38,-78.07 204.88,-88.07 208.38,-78.07 201.38,-78.07"/>
</a>
</g>
<text xml:space="preserve" text-anchor="start" x="207.88" y="-51.25" font-family="Helvetica,sans-Serif" font-size="10.00" fill="grey">_size_in_byte</text>
</g>
<!-- Node5 -->
<g id="Node000005" class="node">
<title>Node5</title>
<g id="a_Node000005"><a xlink:title=" ">
<polygon fill="white" stroke="#666666" points="318,-110 269.75,-110 269.75,-90 318,-90 318,-110"/>
<text xml:space="preserve" text-anchor="middle" x="293.88" y="-96.5" font-family="Helvetica,sans-Serif" font-size="10.00">ptrdiff_t</text>
</a>
</g>
</g>
<!-- Node5&#45;&gt;Node1 -->
<g id="edge4_Node000001_Node000005" class="edge">
<title>Node5&#45;&gt;Node1</title>
<g id="a_edge4_Node000001_Node000005"><a xlink:title=" ">
<path fill="none" stroke="#9a32cd" stroke-dasharray="5,2" d="M290.93,-78.74C288.08,-65.65 282.53,-49.06 271.88,-38 264.3,-30.14 254.14,-24.51 244.02,-20.49"/>
<polygon fill="#9a32cd" stroke="#9a32cd" points="287.46,-79.2 292.66,-88.43 294.35,-77.97 287.46,-79.2"/>
</a>
</g>
<text xml:space="preserve" text-anchor="start" x="292.18" y="-51.25" font-family="Helvetica,sans-Serif" font-size="10.00" fill="grey">_offset_from_this</text>
</g>
<!-- Node6 -->
<g id="Node000006" class="node">
<title>Node6</title>
<g id="a_Node000006"><a xlink:title=" ">
<polygon fill="white" stroke="#666666" points="422.75,-110 373,-110 373,-90 422.75,-90 422.75,-110"/>
<text xml:space="preserve" text-anchor="middle" x="397.88" y="-96.5" font-family="Helvetica,sans-Serif" font-size="10.00">ASCII *</text>
</a>
</g>
</g>
<!-- Node6&#45;&gt;Node1 -->
<g id="edge5_Node000001_Node000006" class="edge">
<title>Node6&#45;&gt;Node1</title>
<g id="a_edge5_Node000001_Node000006"><a xlink:title=" ">
<path fill="none" stroke="#9a32cd" stroke-dasharray="5,2" d="M395.16,-78.73C392.25,-65.13 386.23,-47.94 373.88,-38 355.81,-23.48 297.01,-16.63 253.82,-13.49"/>
<polygon fill="#9a32cd" stroke="#9a32cd" points="391.68,-79.14 396.81,-88.42 398.59,-77.97 391.68,-79.14"/>
</a>
</g>
<text xml:space="preserve" text-anchor="start" x="396.12" y="-59.25" font-family="Helvetica,sans-Serif" font-size="10.00" fill="grey">_name</text>
<text xml:space="preserve" text-anchor="start" x="396.12" y="-43.25" font-family="Helvetica,sans-Serif" font-size="10.00" fill="grey">m_typename</text>
</g>
</g>
</svg>
