<?xml version="1.0" encoding="UTF-8" standalone="no"?>
<!DOCTYPE svg PUBLIC "-//W3C//DTD SVG 1.1//EN"
 "http://www.w3.org/Graphics/SVG/1.1/DTD/svg11.dtd">
<!-- Generated by graphviz version 15.0.0 (20260523.1842)
 -->
<!-- Title: header_file_root Pages: 1 -->
<svg width="381pt" height="250pt"
 viewBox="0.00 0.00 381.00 250.00" xmlns="http://www.w3.org/2000/svg" xmlns:xlink="http://www.w3.org/1999/xlink">
<g id="graph0" class="graph" transform="scale(1 1) rotate(0) translate(4 245.98)">
<title>header_file_root</title>
<!-- Node1 -->
<g id="Node000001" class="node">
<title>Node1</title>
<g id="a_Node000001"><a xlink:title=" ">
<polygon fill="#999999" stroke="#666666" points="373.25,-126 288.25,-126 288.25,-106 373.25,-106 373.25,-126"/>
<text xml:space="preserve" text-anchor="middle" x="330.75" y="-112.5" font-family="Helvetica,sans-Serif" font-size="10.00">header_file_root</text>
</a>
</g>
</g>
<!-- Node2 -->
<g id="Node000002" class="node">
<title>Node2</title>
<g id="a_Node000002"><a xlink:title=" ">
<polygon fill="white" stroke="#666666" points="105.25,-229 32.25,-229 32.25,-209 105.25,-209 105.25,-229"/>
<text xml:space="preserve" text-anchor="middle" x="68.75" y="-215.5" font-family="Helvetica,sans-Serif" font-size="10.00">wstring_view</text>
</a>
</g>
</g>
<!-- Node2&#45;&gt;Node1 -->
<g id="edge1_Node000001_Node000002" class="edge">
<title>Node2&#45;&gt;Node1</title>
<g id="a_edge1_Node000001_Node000002"><a xlink:title=" ">
<path fill="none" stroke="#9a32cd" stroke-dasharray="5,2" d="M116.94,-223.75C159.78,-225.82 223.25,-223.08 270.25,-196 298.45,-179.75 317.32,-144.22 325.35,-126.5"/>
<polygon fill="#9a32cd" stroke="#9a32cd" points="117.41,-220.28 107.21,-223.17 116.99,-227.26 117.41,-220.28"/>
</a>
</g>
<text xml:space="preserve" text-anchor="start" x="158.5" y="-229.23" font-family="Helvetica,sans-Serif" font-size="10.00" fill="grey">_path_to_the_header_file</text>
</g>
<!-- Node3 -->
<g id="Node000003" class="node">
<title>Node3</title>
<g id="a_Node000003"><a xlink:title=" ">
<polygon fill="white" stroke="#666666" points="137.5,-188 0,-188 0,-168 137.5,-168 137.5,-188"/>
<text xml:space="preserve" text-anchor="middle" x="68.75" y="-174.5" font-family="Helvetica,sans-Serif" font-size="10.00">vector&lt; namespace_node &gt;</text>
</a>
</g>
</g>
<!-- Node3&#45;&gt;Node1 -->
<g id="edge2_Node000001_Node000003" class="edge">
<title>Node3&#45;&gt;Node1</title>
<g id="a_edge2_Node000001_Node000003"><a xlink:title=" ">
<path fill="none" stroke="#9a32cd" stroke-dasharray="5,2" d="M149.14,-175.28C186.7,-172.1 231.67,-165.5 270.25,-152 287.34,-146.02 304.83,-134.69 316.39,-126.33"/>
<polygon fill="#9a32cd" stroke="#9a32cd" points="148.94,-171.78 139.24,-176.04 149.48,-178.76 148.94,-171.78"/>
</a>
</g>
<text xml:space="preserve" text-anchor="start" x="182.5" y="-179.73" font-family="Helvetica,sans-Serif" font-size="10.00" fill="grey">_namespaces</text>
</g>
<!-- Node4 -->
<g id="Node000004" class="node">
<title>Node4</title>
<g id="a_Node000004"><a xlink:title=" ">
<polygon fill="white" stroke="#666666" points="124,-147 13.5,-147 13.5,-127 124,-127 124,-147"/>
<text xml:space="preserve" text-anchor="middle" x="68.75" y="-133.5" font-family="Helvetica,sans-Serif" font-size="10.00">vector&lt; class_node &gt;</text>
</a>
</g>
</g>
<!-- Node4&#45;&gt;Node1 -->
<g id="edge3_Node000001_Node000004" class="edge">
<title>Node4&#45;&gt;Node1</title>
<g id="a_edge3_Node000001_Node000004"><a xlink:title=" ">
<path fill="none" stroke="#9a32cd" stroke-dasharray="5,2" d="M135.47,-131.69C183.43,-127.82 246.99,-122.68 288.13,-119.36"/>
<polygon fill="#9a32cd" stroke="#9a32cd" points="135.45,-128.18 125.76,-132.48 136.01,-135.16 135.45,-128.18"/>
</a>
</g>
<text xml:space="preserve" text-anchor="start" x="193.38" y="-134.86" font-family="Helvetica,sans-Serif" font-size="10.00" fill="grey">_classes</text>
</g>
<!-- Node5 -->
<g id="Node000005" class="node">
<title>Node5</title>
<g id="a_Node000005"><a xlink:title=" ">
<polygon fill="white" stroke="#666666" points="124.75,-108 12.75,-108 12.75,-88 124.75,-88 124.75,-108"/>
<text xml:space="preserve" text-anchor="middle" x="68.75" y="-94.5" font-family="Helvetica,sans-Serif" font-size="10.00">vector&lt; struct_node &gt;</text>
</a>
</g>
</g>
<!-- Node5&#45;&gt;Node1 -->
<g id="edge4_Node000001_Node000005" class="edge">
<title>Node5&#45;&gt;Node1</title>
<g id="a_edge4_Node000001_Node000005"><a xlink:title=" ">
<path fill="none" stroke="#9a32cd" stroke-dasharray="5,2" d="M136.26,-92.39C175.48,-90.39 225.95,-90.1 270.25,-97 281.29,-98.72 293.07,-102.13 303.22,-105.59"/>
<polygon fill="#9a32cd" stroke="#9a32cd" points="136.29,-88.89 126.5,-92.94 136.68,-95.87 136.29,-88.89"/>
</a>
</g>
<text xml:space="preserve" text-anchor="start" x="195.25" y="-102.25" font-family="Helvetica,sans-Serif" font-size="10.00" fill="grey">_structs</text>
</g>
<!-- Node6 -->
<g id="Node000006" class="node">
<title>Node6</title>
<g id="a_Node000006"><a xlink:title=" ">
<polygon fill="white" stroke="#666666" points="121.75,-70 15.75,-70 15.75,-38 121.75,-38 121.75,-70"/>
<text xml:space="preserve" text-anchor="start" x="23.75" y="-56.5" font-family="Helvetica,sans-Serif" font-size="10.00">vector&lt; enum_struct</text>
<text xml:space="preserve" text-anchor="middle" x="68.75" y="-44.5" font-family="Helvetica,sans-Serif" font-size="10.00">_node &gt;</text>
</a>
</g>
</g>
<!-- Node6&#45;&gt;Node1 -->
<g id="edge5_Node000001_Node000006" class="edge">
<title>Node6&#45;&gt;Node1</title>
<g id="a_edge5_Node000001_Node000006"><a xlink:title=" ">
<path fill="none" stroke="#9a32cd" stroke-dasharray="5,2" d="M133.19,-49.4C173.71,-48.7 226.64,-52 270.25,-69 290.61,-76.93 309.58,-94.34 320.41,-105.6"/>
<polygon fill="#9a32cd" stroke="#9a32cd" points="133.26,-45.9 123.35,-49.67 133.44,-52.9 133.26,-45.9"/>
</a>
</g>
<text xml:space="preserve" text-anchor="start" x="180.62" y="-74.25" font-family="Helvetica,sans-Serif" font-size="10.00" fill="grey">_enum_structs</text>
</g>
<!-- Node7 -->
<g id="Node000007" class="node">
<title>Node7</title>
<g id="a_Node000007"><a xlink:title=" ">
<polygon fill="white" stroke="#666666" points="128.5,-20 9,-20 9,0 128.5,0 128.5,-20"/>
<text xml:space="preserve" text-anchor="middle" x="68.75" y="-6.5" font-family="Helvetica,sans-Serif" font-size="10.00">vector&lt; system_node &gt;</text>
</a>
</g>
</g>
<!-- Node7&#45;&gt;Node1 -->
<g id="edge6_Node000001_Node000007" class="edge">
<title>Node7&#45;&gt;Node1</title>
<g id="a_edge6_Node000001_Node000007"><a xlink:title=" ">
<path fill="none" stroke="#9a32cd" stroke-dasharray="5,2" d="M140.09,-1.99C180.76,-0.7 231.4,-5.08 270.25,-28 300.75,-45.99 318.97,-86.49 326.17,-105.62"/>
<polygon fill="#9a32cd" stroke="#9a32cd" points="139.98,1.51 130.15,-2.44 140.3,-5.48 139.98,1.51"/>
</a>
</g>
<text xml:space="preserve" text-anchor="start" x="181.75" y="-33.25" font-family="Helvetica,sans-Serif" font-size="10.00" fill="grey">_system_fptrs</text>
</g>
</g>
</svg>
