<?xml version="1.0" encoding="UTF-8" standalone="no"?>
<!DOCTYPE svg PUBLIC "-//W3C//DTD SVG 1.1//EN"
 "http://www.w3.org/Graphics/SVG/1.1/DTD/svg11.dtd">
<!-- Generated by graphviz version 15.0.0 (20260523.1842)
 -->
<!-- Title: token Pages: 1 -->
<svg width="352pt" height="114pt"
 viewBox="0.00 0.00 352.00 114.00" xmlns="http://www.w3.org/2000/svg" xmlns:xlink="http://www.w3.org/1999/xlink">
<g id="graph0" class="graph" transform="scale(1 1) rotate(0) translate(4 110)">
<title>token</title>
<!-- Node1 -->
<g id="Node000001" class="node">
<title>Node1</title>
<g id="a_Node000001"><a xlink:title=" ">
<polygon fill="#999999" stroke="#666666" points="182,-20 142,-20 142,0 182,0 182,-20"/>
<text xml:space="preserve" text-anchor="middle" x="162" y="-6.5" font-family="Helvetica,sans-Serif" font-size="10.00">token</text>
</a>
</g>
</g>
<!-- Node2 -->
<g id="Node000002" class="node">
<title>Node2</title>
<g id="a_Node000002"><a xlink:title=" ">
<polygon fill="white" stroke="#666666" points="64,-100 0,-100 0,-80 64,-80 64,-100"/>
<text xml:space="preserve" text-anchor="middle" x="32" y="-86.5" font-family="Helvetica,sans-Serif" font-size="10.00">Vocabulary</text>
</a>
</g>
</g>
<!-- Node2&#45;&gt;Node1 -->
<g id="edge1_Node000001_Node000002" class="edge">
<title>Node2&#45;&gt;Node1</title>
<g id="a_edge1_Node000001_Node000002"><a xlink:title=" ">
<path fill="none" stroke="#9a32cd" stroke-dasharray="5,2" d="M33.46,-68.47C35.26,-57.99 39.16,-45.83 47.5,-38 73.26,-13.82 116.5,-9.99 141.82,-10.05"/>
<polygon fill="#9a32cd" stroke="#9a32cd" points="30.01,-67.81 32.34,-78.15 36.96,-68.61 30.01,-67.81"/>
</a>
</g>
<text xml:space="preserve" text-anchor="start" x="50.5" y="-43.25" font-family="Helvetica,sans-Serif" font-size="10.00" fill="grey">_vocabulary</text>
</g>
<!-- Node3 -->
<g id="Node000003" class="node">
<title>Node3</title>
<g id="a_Node000003"><a xlink:title=" ">
<polygon fill="white" stroke="#666666" points="139.25,-100 88.75,-100 88.75,-80 139.25,-80 139.25,-100"/>
<text xml:space="preserve" text-anchor="middle" x="114" y="-86.5" font-family="Helvetica,sans-Serif" font-size="10.00">uint32_t</text>
</a>
</g>
</g>
<!-- Node3&#45;&gt;Node1 -->
<g id="edge2_Node000001_Node000003" class="edge">
<title>Node3&#45;&gt;Node1</title>
<g id="a_edge2_Node000001_Node000003"><a xlink:title=" ">
<path fill="none" stroke="#9a32cd" stroke-dasharray="5,2" d="M110.05,-68.38C109.23,-58.55 109.91,-47 115.25,-38 121.09,-28.17 131.98,-21.57 141.78,-17.37"/>
<polygon fill="#9a32cd" stroke="#9a32cd" points="106.56,-68.7 111.44,-78.1 113.49,-67.71 106.56,-68.7"/>
</a>
</g>
<text xml:space="preserve" text-anchor="start" x="118.25" y="-43.25" font-family="Helvetica,sans-Serif" font-size="10.00" fill="grey">_token_number</text>
</g>
<!-- Node4 -->
<g id="Node000004" class="node">
<title>Node4</title>
<g id="a_Node000004"><a xlink:title=" ">
<polygon fill="white" stroke="#666666" points="258.5,-106 161.5,-106 161.5,-74 258.5,-74 258.5,-106"/>
<text xml:space="preserve" text-anchor="start" x="169.5" y="-92.5" font-family="Helvetica,sans-Serif" font-size="10.00">basic_string&lt; var::</text>
<text xml:space="preserve" text-anchor="middle" x="210" y="-80.5" font-family="Helvetica,sans-Serif" font-size="10.00">UTF8 &gt;</text>
</a>
</g>
</g>
<!-- Node4&#45;&gt;Node1 -->
<g id="edge3_Node000001_Node000004" class="edge">
<title>Node4&#45;&gt;Node1</title>
<g id="a_edge3_Node000001_Node000004"><a xlink:title=" ">
<path fill="none" stroke="#9a32cd" stroke-dasharray="5,2" d="M200.85,-62.88C197.4,-54.59 193.07,-45.62 188,-38 183.68,-31.5 177.69,-25.16 172.56,-20.26"/>
<polygon fill="#9a32cd" stroke="#9a32cd" points="197.56,-64.08 204.44,-72.13 204.08,-61.54 197.56,-64.08"/>
</a>
</g>
<text xml:space="preserve" text-anchor="start" x="200.53" y="-43.25" font-family="Helvetica,sans-Serif" font-size="10.00" fill="grey">_code</text>
</g>
<!-- Node5 -->
<g id="Node000005" class="node">
<title>Node5</title>
<g id="a_Node000005"><a xlink:title=" ">
<polygon fill="white" stroke="#666666" points="325.5,-100 276.5,-100 276.5,-80 325.5,-80 325.5,-100"/>
<text xml:space="preserve" text-anchor="middle" x="301" y="-86.5" font-family="Helvetica,sans-Serif" font-size="10.00">wchar *</text>
</a>
</g>
</g>
<!-- Node5&#45;&gt;Node1 -->
<g id="edge4_Node000001_Node000005" class="edge">
<title>Node5&#45;&gt;Node1</title>
<g id="a_edge4_Node000001_Node000005"><a xlink:title=" ">
<path fill="none" stroke="#9a32cd" stroke-dasharray="5,2" d="M282.33,-72.41C269.43,-61.57 251.5,-47.67 234,-38 217.41,-28.83 197.07,-21.53 182.25,-16.84"/>
<polygon fill="#9a32cd" stroke="#9a32cd" points="279.75,-74.81 289.61,-78.68 284.32,-69.5 279.75,-74.81"/>
</a>
</g>
<text xml:space="preserve" text-anchor="start" x="264.08" y="-43.25" font-family="Helvetica,sans-Serif" font-size="10.00" fill="grey">_header_file_path</text>
</g>
</g>
</svg>
