<?xml version="1.0" encoding="UTF-8" standalone="no"?>
<!DOCTYPE svg PUBLIC "-//W3C//DTD SVG 1.1//EN"
 "http://www.w3.org/Graphics/SVG/1.1/DTD/svg11.dtd">
<!-- Generated by graphviz version 15.0.0 (20260523.1842)
 -->
<!-- Title: is_observer_smart_ptr&lt; FE::smart_ptr&lt; T, FE::RefType::_Observer &gt; &gt; Pages: 1 -->
<svg width="309pt" height="199pt"
 viewBox="0.00 0.00 309.00 199.00" xmlns="http://www.w3.org/2000/svg" xmlns:xlink="http://www.w3.org/1999/xlink">
<g id="graph0" class="graph" transform="scale(1 1) rotate(0) translate(4 195)">
<title>is_observer_smart_ptr&lt; FE::smart_ptr&lt; T, FE::RefType::_Observer &gt; &gt;</title>
<!-- Node1 -->
<g id="Node000001" class="node">
<title>Node1</title>
<g id="a_Node000001"><a xlink:title=" ">
<polygon fill="#999999" stroke="#666666" points="172.12,-44 44.38,-44 44.38,0 172.12,0 172.12,-44"/>
<text xml:space="preserve" text-anchor="start" x="52.38" y="-30.5" font-family="Helvetica,sans-Serif" font-size="10.00">is_observer_smart_ptr</text>
<text xml:space="preserve" text-anchor="start" x="52.38" y="-18.5" font-family="Helvetica,sans-Serif" font-size="10.00">&lt; FE::smart_ptr&lt; T, FE</text>
<text xml:space="preserve" text-anchor="middle" x="108.25" y="-6.5" font-family="Helvetica,sans-Serif" font-size="10.00">::RefType::_Observer &gt; &gt;</text>
</a>
</g>
</g>
<!-- Node2 -->
<g id="Node000002" class="node">
<title>Node2</title>
<g id="a_Node000002"><a xlink:title=" ">
<polygon fill="white" stroke="#666666" points="80.5,-191 0,-191 0,-171 80.5,-171 80.5,-191"/>
<text xml:space="preserve" text-anchor="middle" x="40.25" y="-177.5" font-family="Helvetica,sans-Serif" font-size="10.00">std::false_type</text>
</a>
</g>
</g>
<!-- Node2&#45;&gt;Node1 -->
<g id="edge1_Node000001_Node000002" class="edge">
<title>Node2&#45;&gt;Node1</title>
<g id="a_edge1_Node000001_Node000002"><a xlink:title=" ">
<path fill="none" stroke="#63b8ff" d="M39.91,-159.47C40.29,-146.15 41.95,-128.61 47.25,-114 56.79,-87.72 75.48,-61.61 89.68,-44.15"/>
<polygon fill="#63b8ff" stroke="#63b8ff" points="36.41,-159.19 39.86,-169.21 43.41,-159.23 36.41,-159.19"/>
</a>
</g>
</g>
<!-- Node4 -->
<g id="Node000004" class="node">
<title>Node4</title>
<g id="a_Node000004"><a xlink:href="$structis__observer__smart__ptr.html" xlink:title=" ">
<polygon fill="white" stroke="#666666" points="192.25,-134 56.25,-134 56.25,-114 192.25,-114 192.25,-134"/>
<text xml:space="preserve" text-anchor="middle" x="124.25" y="-120.5" font-family="Helvetica,sans-Serif" font-size="10.00">is_observer_smart_ptr&lt; T &gt;</text>
</a>
</g>
</g>
<!-- Node2&#45;&gt;Node4 -->
<g id="edge4_Node000004_Node000002" class="edge">
<title>Node2&#45;&gt;Node4</title>
<g id="a_edge4_Node000004_Node000002"><a xlink:title=" ">
<path fill="none" stroke="#63b8ff" d="M64.02,-164.43C78.82,-154.75 97.36,-142.61 109.93,-134.38"/>
<polygon fill="#63b8ff" stroke="#63b8ff" points="62.21,-161.43 55.77,-169.84 66.05,-167.29 62.21,-161.43"/>
</a>
</g>
</g>
<!-- Node3 -->
<g id="Node000003" class="node">
<title>Node3</title>
<g id="a_Node000003"><a xlink:title=" ">
<polygon fill="white" stroke="#666666" points="301.25,-134 225.25,-134 225.25,-114 301.25,-114 301.25,-134"/>
<text xml:space="preserve" text-anchor="middle" x="263.25" y="-120.5" font-family="Helvetica,sans-Serif" font-size="10.00">std::true_type</text>
</a>
</g>
</g>
<!-- Node3&#45;&gt;Node1 -->
<g id="edge2_Node000001_Node000003" class="edge">
<title>Node3&#45;&gt;Node1</title>
<g id="a_edge2_Node000001_Node000003"><a xlink:title=" ">
<path fill="none" stroke="#63b8ff" d="M263.65,-102.51C262.8,-89.33 259.5,-72.71 249.25,-62 229.41,-41.26 199.61,-31.23 172.51,-26.5"/>
<polygon fill="#63b8ff" stroke="#63b8ff" points="260.14,-102.35 263.83,-112.29 267.14,-102.22 260.14,-102.35"/>
</a>
</g>
</g>
<!-- Node4&#45;&gt;Node1 -->
<g id="edge3_Node000001_Node000004" class="edge">
<title>Node4&#45;&gt;Node1</title>
<g id="a_edge3_Node000001_Node000004"><a xlink:title=" ">
<path fill="none" stroke="orange" stroke-dasharray="5,2" d="M112.66,-104.03C111.48,-101.41 110.46,-98.69 109.75,-96 105.31,-79.08 105.22,-59.19 106.08,-44.45"/>
<polygon fill="orange" stroke="orange" points="109.46,-105.47 117.28,-112.62 115.63,-102.16 109.46,-105.47"/>
</a>
</g>
<text xml:space="preserve" text-anchor="start" x="112.75" y="-83.25" font-family="Helvetica,sans-Serif" font-size="10.00" fill="grey">&lt; FE::smart_ptr&lt; T,</text>
<text xml:space="preserve" text-anchor="start" x="112.75" y="-67.25" font-family="Helvetica,sans-Serif" font-size="10.00" fill="grey">   FE::RefType::_Observer &gt; &gt;</text>
</g>
</g>
</svg>
