<?xml version="1.0" encoding="UTF-8" standalone="no"?>
<!DOCTYPE svg PUBLIC "-//W3C//DTD SVG 1.1//EN"
 "http://www.w3.org/Graphics/SVG/1.1/DTD/svg11.dtd">
<!-- Generated by graphviz version 15.0.0 (20260523.1842)
 -->
<!-- Title: int_info Pages: 1 -->
<svg width="142pt" height="102pt"
 viewBox="0.00 0.00 142.00 102.00" xmlns="http://www.w3.org/2000/svg" xmlns:xlink="http://www.w3.org/1999/xlink">
<g id="graph0" class="graph" transform="scale(1 1) rotate(0) translate(4 98)">
<title>int_info</title>
<!-- Node1 -->
<g id="Node000001" class="node">
<title>Node1</title>
<g id="a_Node000001"><a xlink:title=" ">
<polygon fill="#999999" stroke="#666666" points="77.38,-20 29.88,-20 29.88,0 77.38,0 77.38,-20"/>
<text xml:space="preserve" text-anchor="middle" x="53.62" y="-6.5" font-family="Helvetica,sans-Serif" font-size="10.00">int_info</text>
</a>
</g>
</g>
<!-- Node2 -->
<g id="Node000002" class="node">
<title>Node2</title>
<g id="a_Node000002"><a xlink:title=" ">
<polygon fill="white" stroke="#666666" points="45.25,-94 0,-94 0,-74 45.25,-74 45.25,-94"/>
<text xml:space="preserve" text-anchor="middle" x="22.62" y="-80.5" font-family="Helvetica,sans-Serif" font-size="10.00">int64_t</text>
</a>
</g>
</g>
<!-- Node2&#45;&gt;Node1 -->
<g id="edge1_Node000001_Node000002" class="edge">
<title>Node2&#45;&gt;Node1</title>
<g id="a_edge1_Node000001_Node000002"><a xlink:title=" ">
<path fill="none" stroke="#9a32cd" stroke-dasharray="5,2" d="M23.06,-62.33C23.87,-54.42 25.59,-45.5 29.12,-38 32.25,-31.36 37.58,-25.19 42.46,-20.43"/>
<polygon fill="#9a32cd" stroke="#9a32cd" points="19.58,-61.89 22.5,-72.07 26.56,-62.29 19.58,-61.89"/>
</a>
</g>
<text xml:space="preserve" text-anchor="start" x="32.12" y="-43.25" font-family="Helvetica,sans-Serif" font-size="10.00" fill="grey">_value</text>
</g>
<!-- Node3 -->
<g id="Node000003" class="node">
<title>Node3</title>
<g id="a_Node000003"><a xlink:title=" ">
<polygon fill="white" stroke="#666666" points="108.25,-94 63,-94 63,-74 108.25,-74 108.25,-94"/>
<text xml:space="preserve" text-anchor="middle" x="85.62" y="-80.5" font-family="Helvetica,sans-Serif" font-size="10.00">uint8_t</text>
</a>
</g>
</g>
<!-- Node3&#45;&gt;Node1 -->
<g id="edge2_Node000001_Node000003" class="edge">
<title>Node3&#45;&gt;Node1</title>
<g id="a_edge2_Node000001_Node000003"><a xlink:title=" ">
<path fill="none" stroke="#9a32cd" stroke-dasharray="5,2" d="M76.93,-63.44C70.68,-49.37 62.53,-31.03 57.71,-20.19"/>
<polygon fill="#9a32cd" stroke="#9a32cd" points="73.57,-64.49 80.83,-72.2 79.96,-61.64 73.57,-64.49"/>
</a>
</g>
<text xml:space="preserve" text-anchor="start" x="76.43" y="-43.25" font-family="Helvetica,sans-Serif" font-size="10.00" fill="grey">_digit_length</text>
</g>
</g>
</svg>
