<?xml version="1.0" encoding="UTF-8" standalone="no"?>
<!DOCTYPE svg PUBLIC "-//W3C//DTD SVG 1.1//EN"
 "http://www.w3.org/Graphics/SVG/1.1/DTD/svg11.dtd">
<!-- Generated by graphviz version 15.0.0 (20260523.1842)
 -->
<!-- Title: is_const_iterator&lt; Impl &gt; Pages: 1 -->
<svg width="150pt" height="211pt"
 viewBox="0.00 0.00 150.00 211.00" xmlns="http://www.w3.org/2000/svg" xmlns:xlink="http://www.w3.org/1999/xlink">
<g id="graph0" class="graph" transform="scale(1 1) rotate(0) translate(4 207)">
<title>is_const_iterator&lt; Impl &gt;</title>
<!-- Node1 -->
<g id="Node000001" class="node">
<title>Node1</title>
<g id="a_Node000001"><a xlink:title=" ">
<polygon fill="#999999" stroke="#666666" points="95.5,-146 1.5,-146 1.5,-114 95.5,-114 95.5,-146"/>
<text xml:space="preserve" text-anchor="start" x="9.5" y="-132.5" font-family="Helvetica,sans-Serif" font-size="10.00">is_const_iterator&lt;</text>
<text xml:space="preserve" text-anchor="middle" x="48.5" y="-120.5" font-family="Helvetica,sans-Serif" font-size="10.00"> Impl &gt;</text>
</a>
</g>
</g>
<!-- Node3 -->
<g id="Node000003" class="node">
<title>Node3</title>
<g id="a_Node000003"><a xlink:href="$structis__const__iterator_3_01_f_e_1_1const__iterator_3_01_impl_01_4_01_4.html" xlink:title=" ">
<polygon fill="white" stroke="#666666" points="97,-44 0,-44 0,0 97,0 97,-44"/>
<text xml:space="preserve" text-anchor="start" x="8" y="-30.5" font-family="Helvetica,sans-Serif" font-size="10.00">is_const_iterator&lt;</text>
<text xml:space="preserve" text-anchor="start" x="8" y="-18.5" font-family="Helvetica,sans-Serif" font-size="10.00"> FE::const_iterator</text>
<text xml:space="preserve" text-anchor="middle" x="48.5" y="-6.5" font-family="Helvetica,sans-Serif" font-size="10.00">&lt; Impl &gt; &gt;</text>
</a>
</g>
</g>
<!-- Node1&#45;&gt;Node3 -->
<g id="edge2_Node000001_Node000003" class="edge">
<title>Node1&#45;&gt;Node3</title>
<g id="a_edge2_Node000001_Node000003"><a xlink:title=" ">
<path fill="none" stroke="orange" stroke-dasharray="5,2" d="M48.5,-102.41C48.5,-84.48 48.5,-61.12 48.5,-44.39"/>
<polygon fill="orange" stroke="orange" points="45,-102.3 48.5,-112.3 52,-102.3 45,-102.3"/>
</a>
</g>
<text xml:space="preserve" text-anchor="start" x="51.5" y="-83.25" font-family="Helvetica,sans-Serif" font-size="10.00" fill="grey">&lt; FE::const_iterator</text>
<text xml:space="preserve" text-anchor="start" x="51.5" y="-67.25" font-family="Helvetica,sans-Serif" font-size="10.00" fill="grey">  &lt; Impl &gt; &gt;</text>
</g>
<!-- Node2 -->
<g id="Node000002" class="node">
<title>Node2</title>
<g id="a_Node000002"><a xlink:title=" ">
<polygon fill="white" stroke="#666666" points="88.75,-203 8.25,-203 8.25,-183 88.75,-183 88.75,-203"/>
<text xml:space="preserve" text-anchor="middle" x="48.5" y="-189.5" font-family="Helvetica,sans-Serif" font-size="10.00">std::false_type</text>
</a>
</g>
</g>
<!-- Node2&#45;&gt;Node1 -->
<g id="edge1_Node000001_Node000002" class="edge">
<title>Node2&#45;&gt;Node1</title>
<g id="a_edge1_Node000001_Node000002"><a xlink:title=" ">
<path fill="none" stroke="#63b8ff" d="M48.5,-171.36C48.5,-163.07 48.5,-153.69 48.5,-146.06"/>
<polygon fill="#63b8ff" stroke="#63b8ff" points="45,-171.22 48.5,-181.22 52,-171.22 45,-171.22"/>
</a>
</g>
</g>
</g>
</svg>
